<?xml version="1.0" encoding="UTF-8" standalone="no"?>
<svg
   xmlns:dc="http://purl.org/dc/elements/1.1/"
   xmlns:cc="http://creativecommons.org/ns#"
   xmlns:rdf="http://www.w3.org/1999/02/22-rdf-syntax-ns#"
   xmlns:svg="http://www.w3.org/2000/svg"
   xmlns="http://www.w3.org/2000/svg"
   version="1.1"
   id="svg2"
   width="85.333336"
   height="85.333336"
   viewBox="0 0 85.333336 85.333336">
  <title
     id="title875">Software Logo</title>
  <metadata
     id="metadata8">
    <rdf:RDF>
      <cc:Work
         rdf:about="">
        <dc:format>image/svg+xml</dc:format>
        <dc:type
           rdf:resource="http://purl.org/dc/dcmitype/StillImage" />
        <dc:title>Software Logo</dc:title>
        <dc:date>2019</dc:date>
        <dc:creator>
          <cc:Agent>
            <dc:title>N-z0</dc:title>
          </cc:Agent>
        </dc:creator>
        <dc:rights>
          <cc:Agent>
            <dc:title></dc:title>
          </cc:Agent>
        </dc:rights>
        <dc:publisher>
          <cc:Agent>
            <dc:title>https://github.com/N-z0</dc:title>
          </cc:Agent>
        </dc:publisher>
        <dc:identifier></dc:identifier>
        <dc:language />
        <dc:subject>
          <rdf:Bag>
            <rdf:li>software logo icon</rdf:li>
          </rdf:Bag>
        </dc:subject>
        <dc:coverage></dc:coverage>
        <dc:description>Full color logo icon for software projects.</dc:description>
        <dc:source>docs/contents/logo/logo.svg</dc:source>
        <cc:license
           rdf:resource="http://creativecommons.org/publicdomain/zero/1.0/" />
      </cc:Work>
      <cc:License
         rdf:about="http://creativecommons.org/publicdomain/zero/1.0/">
        <cc:permits
           rdf:resource="http://creativecommons.org/ns#Reproduction" />
        <cc:permits
           rdf:resource="http://creativecommons.org/ns#Distribution" />
        <cc:permits
           rdf:resource="http://creativecommons.org/ns#DerivativeWorks" />
      </cc:License>
    </rdf:RDF>
  </metadata>
  <defs
     id="defs6" />
  <path
     id="path5153"
     d="m 22.666667,37.333334 c 0,-3.555556 0.444444,-4 4.000001,-4 3.555556,0 4,0.444444 4,4 0,3.555557 -0.444444,4.000001 -4,4.000001 -3.555557,0 -4.000001,-0.444444 -4.000001,-4.000001 z"
     style="fill:#bee4fd;stroke-width:1.33333337" />
  <path
     id="path5051"
     d="m 54.666668,58.666668 c 0,-3.555556 0.444444,-4 4,-4 3.555557,0 4.000001,0.444444 4.000001,4 0,3.555557 -0.444444,4.000001 -4.000001,4.000001 -3.555556,0 -4,-0.444444 -4,-4.000001 z"
     style="fill:#f3b6ee;stroke-width:1.33333337" />
  <path
     id="path5041"
     d="m 22.666667,48.000002 c 0,-3.555557 0.444444,-4.000001 4.000001,-4.000001 3.555556,0 4,0.444444 4,4.000001 0,3.555556 -0.444444,4 -4,4 -3.555557,0 -4.000001,-0.444444 -4.000001,-4 z"
     style="fill:#f3b6ee;stroke-width:1.33333337" />
  <path
     id="path4915"
     d="m 44.000001,48.000002 c 0,-3.555557 0.444444,-4.000001 4.000001,-4.000001 3.555556,0 4,0.444444 4,4.000001 0,3.555556 -0.444444,4 -4,4 -3.555557,0 -4.000001,-0.444444 -4.000001,-4 z"
     style="fill:#eafcb0;stroke-width:1.33333337" />
  <path
     id="path4805"
     d="m 44.000001,58.666668 c 0,-3.555556 0.444444,-4 4.000001,-4 3.555556,0 4,0.444444 4,4 0,3.555557 -0.444444,4.000001 -4,4.000001 -3.555557,0 -4.000001,-0.444444 -4.000001,-4.000001 z"
     style="fill:#c4c0fe;stroke-width:1.33333337" />
  <path
     id="path4665"
     d="m 33.333334,37.333334 c 0,-3.555556 0.444444,-4 4,-4 3.555557,0 4.000001,0.444444 4.000001,4 0,3.555557 -0.444444,4.000001 -4.000001,4.000001 -3.555556,0 -4,-0.444444 -4,-4.000001 z"
     style="fill:#fee59d;stroke-width:1.33333337" />
  <path
     id="path4515"
     d="m 44.000001,16 c 0,-3.555555 0.444444,-4 4.000001,-4 3.555556,0 4,0.444445 4,4 0,3.555557 -0.444444,4.000001 -4,4.000001 -3.555557,0 -4.000001,-0.444444 -4.000001,-4.000001 z"
     style="fill:#fc97e3;stroke-width:1.33333337" />
  <path
     id="path4413"
     d="m 54.666668,26.666668 c 0,-3.555557 0.444444,-4.000001 4,-4.000001 3.555557,0 4.000001,0.444444 4.000001,4.000001 0,3.555556 -0.444444,4 -4.000001,4 -3.555556,0 -4,-0.444444 -4,-4 z"
     style="fill:#febeb8;stroke-width:1.33333337" />
  <path
     id="path4303"
     d="m 33.333334,26.666668 c 0,-3.555557 0.444444,-4.000001 4,-4.000001 3.555557,0 4.000001,0.444444 4.000001,4.000001 0,3.555556 -0.444444,4 -4.000001,4 -3.555556,0 -4,-0.444444 -4,-4 z"
     style="fill:#baf8b5;stroke-width:1.33333337" />
  <path
     id="path4191"
     d="m 44.000001,26.666668 c 0,-3.555557 0.444444,-4.000001 4.000001,-4.000001 3.555556,0 4,0.444444 4,4.000001 0,3.555556 -0.444444,4 -4,4 -3.555557,0 -4.000001,-0.444444 -4.000001,-4 z"
     style="fill:#84eaf1;stroke-width:1.33333337" />
  <path
     id="path4119"
     d="m 22.666667,58.666668 c 0,-3.555556 0.444444,-4 4.000001,-4 3.555556,0 4,0.444444 4,4 0,3.555557 -0.444444,4.000001 -4,4.000001 -3.555557,0 -4.000001,-0.444444 -4.000001,-4.000001 z"
     style="fill:#95c5fe;stroke-width:1.33333337" />
  <path
     id="path3979"
     d="m 12,26.666668 c 0,-3.555557 0.444445,-4.000001 4,-4.000001 3.555557,0 4.000001,0.444444 4.000001,4.000001 0,3.555556 -0.444444,4 -4.000001,4 -3.555555,0 -4,-0.444444 -4,-4 z"
     style="fill:#79d0fe;stroke-width:1.33333337" />
  <path
     id="path3917"
     d="m 44.000001,69.333336 c 0,-3.555557 0.444444,-4.000001 4.000001,-4.000001 3.555556,0 4,0.444444 4,4.000001 0,3.555556 -0.444444,4 -4,4 -3.555557,0 -4.000001,-0.444444 -4.000001,-4 z"
     style="fill:#a0a4fe;stroke-width:1.33333337" />
  <path
     id="path3789"
     d="m 65.333335,48.000002 c 0,-3.555557 0.444444,-4.000001 4.000001,-4.000001 3.555556,0 4,0.444444 4,4.000001 0,3.555556 -0.444444,4 -4,4 -3.555557,0 -4.000001,-0.444444 -4.000001,-4 z"
     style="fill:#feb28b;stroke-width:1.33333337" />
  <path
     id="path3681"
     d="m 44.000001,37.333334 c 0,-3.555556 0.444444,-4 4.000001,-4 3.555556,0 4,0.444444 4,4 0,3.555557 -0.444444,4.000001 -4,4.000001 -3.555557,0 -4.000001,-0.444444 -4.000001,-4.000001 z"
     style="fill:#e6ea63;stroke-width:1.33333337" />
  <path
     id="path3603"
     d="m 12,58.666668 c 0,-3.555556 0.444445,-4 4,-4 3.555557,0 4.000001,0.444444 4.000001,4 0,3.555557 -0.444444,4.000001 -4.000001,4.000001 -3.555555,0 -4,-0.444444 -4,-4.000001 z"
     style="fill:#ca74ef;stroke-width:1.33333337" />
  <path
     id="path3497"
     d="m 12,48.000002 c 0,-3.555557 0.444445,-4.000001 4,-4.000001 3.555557,0 4.000001,0.444444 4.000001,4.000001 0,3.555556 -0.444444,4 -4.000001,4 -3.555555,0 -4,-0.444444 -4,-4 z"
     style="fill:#fe8e8a;stroke-width:1.33333337" />
  <path
     id="path3399"
     d="m 54.666668,48.000002 c 0,-3.555557 0.444444,-4.000001 4,-4.000001 3.555557,0 4.000001,0.444444 4.000001,4.000001 0,3.555556 -0.444444,4 -4.000001,4 -3.555556,0 -4,-0.444444 -4,-4 z"
     style="fill:#f4d14f;stroke-width:1.33333337" />
  <path
     id="path3279"
     d="m 33.333334,16 c 0,-3.555555 0.444444,-4 4,-4 3.555557,0 4.000001,0.444445 4.000001,4 0,3.555557 -0.444444,4.000001 -4.000001,4.000001 -3.555556,0 -4,-0.444444 -4,-4.000001 z"
     style="fill:#fcb95b;stroke-width:1.33333337" />
  <path
     id="path3207"
     d="m 54.666668,37.333334 c 0,-3.555556 0.444444,-4 4,-4 3.555557,0 4.000001,0.444444 4.000001,4 0,3.555557 -0.444444,4.000001 -4.000001,4.000001 -3.555556,0 -4,-0.444444 -4,-4.000001 z"
     style="fill:#8dec84;stroke-width:1.33333337" />
  <path
     id="path3125"
     d="m 33.333334,48.000002 c 0,-3.555557 0.444444,-4.000001 4,-4.000001 3.555557,0 4.000001,0.444444 4.000001,4.000001 0,3.555556 -0.444444,4 -4.000001,4 -3.555556,0 -4,-0.444444 -4,-4 z"
     style="fill:#bfe25a;stroke-width:1.33333337" />
  <path
     id="path3015"
     d="m 22.666667,16 c 0,-3.555555 0.444444,-4 4.000001,-4 3.555556,0 4,0.444445 4,4 0,3.555557 -0.444444,4.000001 -4,4.000001 -3.555557,0 -4.000001,-0.444444 -4.000001,-4.000001 z"
     style="fill:#2cd3f8;stroke-width:1.33333337" />
  <path
     id="path2931"
     d="m 12,16 c 0,-3.555555 0.444445,-4 4,-4 3.555557,0 4.000001,0.444445 4.000001,4 0,3.555557 -0.444444,4.000001 -4.000001,4.000001 -3.555555,0 -4,-0.444444 -4,-4.000001 z"
     style="fill:#df5eb6;stroke-width:1.33333337" />
  <path
     id="path2873"
     d="m 65.333335,58.666668 c 0,-3.555556 0.444444,-4 4.000001,-4 3.555556,0 4,0.444444 4,4 0,3.555557 -0.444444,4.000001 -4,4.000001 -3.555557,0 -4.000001,-0.444444 -4.000001,-4.000001 z"
     style="fill:#7a80f9;stroke-width:1.33333337" />
  <path
     id="path2793"
     d="m 33.333334,58.666668 c 0,-3.555556 0.444444,-4 4,-4 3.555557,0 4.000001,0.444444 4.000001,4 0,3.555557 -0.444444,4.000001 -4.000001,4.000001 -3.555556,0 -4,-0.444444 -4,-4.000001 z"
     style="fill:#feb729;stroke-width:1.33333337" />
  <path
     id="path2717"
     d="m 76.000002,69.333336 c 0,-3.555557 0.444444,-4.000001 4.000001,-4.000001 3.555556,0 4,0.444444 4,4.000001 0,3.555556 -0.444444,4 -4,4 -3.555557,0 -4.000001,-0.444444 -4.000001,-4 z"
     style="fill:#7568f8;stroke-width:1.33333337" />
  <path
     id="path2643"
     d="m 54.666668,69.333336 c 0,-3.555557 0.444444,-4.000001 4,-4.000001 3.555557,0 4.000001,0.444444 4.000001,4.000001 0,3.555556 -0.444444,4 -4.000001,4 -3.555556,0 -4,-0.444444 -4,-4 z"
     style="fill:#fc775c;stroke-width:1.33333337" />
  <path
     id="path2547"
     d="m 22.666667,26.666668 c 0,-3.555557 0.444444,-4.000001 4.000001,-4.000001 3.555556,0 4,0.444444 4,4.000001 0,3.555556 -0.444444,4 -4,4 -3.555557,0 -4.000001,-0.444444 -4.000001,-4 z"
     style="fill:#83e760;stroke-width:1.33333337" />
  <path
     id="path2467"
     d="m 54.666668,16 c 0,-3.555555 0.444444,-4 4,-4 3.555557,0 4.000001,0.444445 4.000001,4 0,3.555557 -0.444444,4.000001 -4.000001,4.000001 -3.555556,0 -4,-0.444444 -4,-4.000001 z"
     style="fill:#4194dc;stroke-width:1.33333337" />
  <path
     id="path2409"
     d="m 12,37.333334 c 0,-3.555556 0.444445,-4 4,-4 3.555557,0 4.000001,0.444444 4.000001,4 0,3.555557 -0.444444,4.000001 -4.000001,4.000001 -3.555555,0 -4,-0.444444 -4,-4.000001 z"
     style="fill:#fe941e;stroke-width:1.33333337" />
  <path
     id="path2311"
     d="m 65.333335,5.3333335 c 0,-3.5555557 0.444444,-4.0000001 4.000001,-4.0000001 3.555556,0 4,0.4444444 4,4.0000001 0,3.5555557 -0.444444,4.0000001 -4,4.0000001 -3.555557,0 -4.000001,-0.4444444 -4.000001,-4.0000001 z"
     style="fill:#903dc1;stroke-width:1.33333337" />
  <path
     id="path2259"
     d="m 65.333335,16 c 0,-3.555555 0.444444,-4 4.000001,-4 3.555556,0 4,0.444445 4,4 0,3.555557 -0.444444,4.000001 -4,4.000001 -3.555557,0 -4.000001,-0.444444 -4.000001,-4.000001 z"
     style="fill:#e7652c;stroke-width:1.33333337" />
  <path
     id="path2201"
     d="m 1.3333334,26.666668 c 0,-3.555557 0.4444444,-4.000001 4.0000001,-4.000001 3.5555557,0 4.0000001,0.444444 4.0000001,4.000001 0,3.555556 -0.4444444,4 -4.0000001,4 -3.5555557,0 -4.0000001,-0.444444 -4.0000001,-4 z"
     style="fill:#5954c8;stroke-width:1.33333337" />
  <path
     id="path2155"
     d="m 33.333334,69.333336 c 0,-3.555557 0.444444,-4.000001 4,-4.000001 3.555557,0 4.000001,0.444444 4.000001,4.000001 0,3.555556 -0.444444,4 -4.000001,4 -3.555556,0 -4,-0.444444 -4,-4 z"
     style="fill:#d07b26;stroke-width:1.33333337" />
  <path
     id="path2111"
     d="m 22.666667,80.000003 c 0,-3.555557 0.444444,-4.000001 4.000001,-4.000001 3.555556,0 4,0.444444 4,4.000001 0,3.555556 -0.444444,4 -4,4 -3.555557,0 -4.000001,-0.444444 -4.000001,-4 z"
     style="fill:#f54a30;stroke-width:1.33333337" />
  <path
     id="path2023"
     d="m 65.333335,37.333334 c 0,-3.555556 0.444444,-4 4.000001,-4 3.555556,0 4,0.444444 4,4 0,3.555557 -0.444444,4.000001 -4,4.000001 -3.555557,0 -4.000001,-0.444444 -4.000001,-4.000001 z"
     style="fill:#b7961a;stroke-width:1.33333337" />
  <path
     id="path1981"
     d="m 12,69.333336 c 0,-3.555557 0.444445,-4.000001 4,-4.000001 3.555557,0 4.000001,0.444444 4.000001,4.000001 0,3.555556 -0.444444,4 -4.000001,4 -3.555555,0 -4,-0.444444 -4,-4 z"
     style="fill:#009fc6;stroke-width:1.33333337" />
  <path
     id="path1907"
     d="m 76.000002,26.666668 c 0,-3.555557 0.444444,-4.000001 4.000001,-4.000001 3.555556,0 4,0.444444 4,4.000001 0,3.555556 -0.444444,4 -4,4 -3.555557,0 -4.000001,-0.444444 -4.000001,-4 z"
     style="fill:#3b47dc;stroke-width:1.33333337" />
  <path
     id="path1855"
     d="m 65.333335,26.666668 c 0,-3.555557 0.444444,-4.000001 4.000001,-4.000001 3.555556,0 4,0.444444 4,4.000001 0,3.555556 -0.444444,4 -4,4 -3.555557,0 -4.000001,-0.444444 -4.000001,-4 z"
     style="fill:#95a21e;stroke-width:1.33333337" />
  <path
     id="path1809"
     d="m 76.000002,48.000002 c 0,-3.555557 0.444444,-4.000001 4.000001,-4.000001 3.555556,0 4,0.444444 4,4.000001 0,3.555556 -0.444444,4 -4,4 -3.555557,0 -4.000001,-0.444444 -4.000001,-4 z"
     style="fill:#aa2380;stroke-width:1.33333337" />
  <path
     id="path1769"
     d="m 22.666667,69.333336 c 0,-3.555557 0.444444,-4.000001 4.000001,-4.000001 3.555556,0 4,0.444444 4,4.000001 0,3.555556 -0.444444,4 -4,4 -3.555557,0 -4.000001,-0.444444 -4.000001,-4 z"
     style="fill:#7da51d;stroke-width:1.33333337" />
  <path
     id="path1703"
     d="m 12,5.3333335 c 0,-3.5555557 0.444445,-4.0000001 4,-4.0000001 3.555557,0 4.000001,0.4444444 4.000001,4.0000001 0,3.5555557 -0.444444,4.0000001 -4.000001,4.0000001 -3.555555,0 -4,-0.4444444 -4,-4.0000001 z"
     style="fill:#2063b8;stroke-width:1.33333337" />
  <path
     id="path1669"
     d="m 1.3333334,48.000002 c 0,-3.555557 0.4444444,-4.000001 4.0000001,-4.000001 3.5555557,0 4.0000001,0.444444 4.0000001,4.000001 0,3.555556 -0.4444444,4 -4.0000001,4 -3.5555557,0 -4.0000001,-0.444444 -4.0000001,-4 z"
     style="fill:#009b9e;stroke-width:1.33333337" />
  <path
     id="path1631"
     d="m 65.333335,69.333336 c 0,-3.555557 0.444444,-4.000001 4.000001,-4.000001 3.555556,0 4,0.444444 4,4.000001 0,3.555556 -0.444444,4 -4,4 -3.555557,0 -4.000001,-0.444444 -4.000001,-4 z"
     style="fill:#3ea425;stroke-width:1.33333337" />
  <path
     id="path1581"
     d="m 1.3333334,16 c 0,-3.555555 0.4444444,-4 4.0000001,-4 3.5555557,0 4.0000001,0.444445 4.0000001,4 0,3.555557 -0.4444444,4.000001 -4.0000001,4.000001 -3.5555557,0 -4.0000001,-0.444444 -4.0000001,-4.000001 z"
     style="fill:#d31f0c;stroke-width:1.33333337" />
  <path
     id="path1545"
     d="m 1.3333334,37.333334 c 0,-3.555556 0.4444444,-4 4.0000001,-4 3.5555557,0 4.0000001,0.444444 4.0000001,4 0,3.555557 -0.4444444,4.000001 -4.0000001,4.000001 -3.5555557,0 -4.0000001,-0.444444 -4.0000001,-4.000001 z"
     style="fill:#6a127f;stroke-width:1.33333337" />
  <path
     id="path1495"
     d="m 54.666668,5.3333335 c 0,-3.5555557 0.444444,-4.0000001 4,-4.0000001 3.555557,0 4.000001,0.4444444 4.000001,4.0000001 0,3.5555557 -0.444444,4.0000001 -4.000001,4.0000001 -3.555556,0 -4,-0.4444444 -4,-4.0000001 z"
     style="fill:#b12e15;stroke-width:1.33333337" />
  <path
     id="path1477"
     d="m 1.3333334,69.333336 c 0,-3.555557 0.4444444,-4.000001 4.0000001,-4.000001 3.5555557,0 4.0000001,0.444444 4.0000001,4.000001 0,3.555556 -0.4444444,4 -4.0000001,4 -3.5555557,0 -4.0000001,-0.444444 -4.0000001,-4 z"
     style="fill:#9d4510;stroke-width:1.33333337" />
  <path
     id="path1429"
     d="m 44.000001,5.3333335 c 0,-3.5555557 0.444444,-4.0000001 4.000001,-4.0000001 3.555556,0 4,0.4444444 4,4.0000001 0,3.5555557 -0.444444,4.0000001 -4,4.0000001 -3.555557,0 -4.000001,-0.4444444 -4.000001,-4.0000001 z"
     style="fill:#2324a3;stroke-width:1.33333337" />
  <path
     id="path1399"
     d="m 33.333334,5.3333335 c 0,-3.5555557 0.444444,-4.0000001 4,-4.0000001 3.555557,0 4.000001,0.4444444 4.000001,4.0000001 0,3.5555557 -0.444444,4.0000001 -4.000001,4.0000001 -3.555556,0 -4,-0.4444444 -4,-4.0000001 z"
     style="fill:#035c75;stroke-width:1.33333337" />
  <path
     id="path1393"
     d="m 12,80.000003 c 0,-3.555557 0.444445,-4.000001 4,-4.000001 3.555557,0 4.000001,0.444444 4.000001,4.000001 0,3.555556 -0.444444,4 -4.000001,4 -3.555555,0 -4,-0.444444 -4,-4 z"
     style="fill:#5a7600;stroke-width:1.33333337" />
  <path
     id="path1351"
     d="m 76.000002,37.333334 c 0,-3.555556 0.444444,-4 4.000001,-4 3.555556,0 4,0.444444 4,4 0,3.555557 -0.444444,4.000001 -4,4.000001 -3.555557,0 -4.000001,-0.444444 -4.000001,-4.000001 z"
     style="fill:#3b1082;stroke-width:1.33333337" />
  <path
     id="path1329"
     d="m 1.3333334,58.666668 c 0,-3.555556 0.4444444,-4 4.0000001,-4 3.5555557,0 4.0000001,0.444444 4.0000001,4 0,3.555557 -0.4444444,4.000001 -4.0000001,4.000001 -3.5555557,0 -4.0000001,-0.444444 -4.0000001,-4.000001 z"
     style="fill:#1b3577;stroke-width:1.33333337" />
  <path
     id="path1307"
     d="m 76.000002,80.000003 c 0,-3.555557 0.444444,-4.000001 4.000001,-4.000001 3.555556,0 4,0.444444 4,4.000001 0,3.555556 -0.444444,4 -4,4 -3.555557,0 -4.000001,-0.444444 -4.000001,-4 z"
     style="fill:#6f004a;stroke-width:1.33333337" />
  <path
     id="path1301"
     d="m 1.3333334,5.3333335 c 0,-3.5555557 0.4444444,-4.0000001 4.0000001,-4.0000001 3.5555557,0 4.0000001,0.4444444 4.0000001,4.0000001 0,3.5555557 -0.4444444,4.0000001 -4.0000001,4.0000001 -3.5555557,0 -4.0000001,-0.4444444 -4.0000001,-4.0000001 z"
     style="fill:#6f004a;stroke-width:1.33333337" />
  <path
     id="path1287"
     d="m 65.333335,80.000003 c 0,-3.555557 0.444444,-4.000001 4.000001,-4.000001 3.555556,0 4,0.444444 4,4.000001 0,3.555556 -0.444444,4 -4,4 -3.555557,0 -4.000001,-0.444444 -4.000001,-4 z"
     style="fill:#006356;stroke-width:1.33333337" />
  <path
     id="path1271"
     d="m 54.666668,80.000003 c 0,-3.555557 0.444444,-4.000001 4,-4.000001 3.555557,0 4.000001,0.444444 4.000001,4.000001 0,3.555556 -0.444444,4 -4.000001,4 -3.555556,0 -4,-0.444444 -4,-4 z"
     style="fill:#4f4a03;stroke-width:1.33333337" />
  <path
     id="path1269"
     d="m 76.000002,58.666668 c 0,-3.555556 0.444444,-4 4.000001,-4 3.555556,0 4,0.444444 4,4 0,3.555557 -0.444444,4.000001 -4,4.000001 -3.555557,0 -4.000001,-0.444444 -4.000001,-4.000001 z"
     style="fill:#4f4a03;stroke-width:1.33333337" />
  <path
     id="path1259"
     d="m 33.333334,80.000003 c 0,-3.555557 0.444444,-4.000001 4,-4.000001 3.555557,0 4.000001,0.444444 4.000001,4.000001 0,3.555556 -0.444444,4 -4.000001,4 -3.555556,0 -4,-0.444444 -4,-4 z"
     style="fill:#6f2009;stroke-width:1.33333337" />
  <path
     id="path1243"
     d="m 22.666667,5.3333335 c 0,-3.5555557 0.444444,-4.0000001 4.000001,-4.0000001 3.555556,0 4,0.4444444 4,4.0000001 0,3.5555557 -0.444444,4.0000001 -4,4.0000001 -3.555557,0 -4.000001,-0.4444444 -4.000001,-4.0000001 z"
     style="fill:#5c2701;stroke-width:1.33333337" />
  <path
     id="path1044"
     d="m 76.000002,5.3333335 c 0,-3.5555557 0.444444,-4.0000001 4.000001,-4.0000001 3.555556,0 4,0.4444444 4,4.0000001 0,3.5555557 -0.444444,4.0000001 -4,4.0000001 -3.555557,0 -4.000001,-0.4444444 -4.000001,-4.0000001 z"
     style="fill:#4c0130;stroke-width:1.33333337" />
  <path
     id="path1229"
     d="m 44.000001,80.000003 c 0,-3.555557 0.444444,-4.000001 4.000001,-4.000001 3.555556,0 4,0.444444 4,4.000001 0,3.555556 -0.444444,4 -4,4 -3.555557,0 -4.000001,-0.444444 -4.000001,-4 z"
     style="fill:#0f6a02;stroke-width:1.33333337" />
  <path
     id="path1040"
     d="m 76.000002,16 c 0,-3.555555 0.444444,-4 4.000001,-4 3.555556,0 4,0.444445 4,4 0,3.555557 -0.444444,4.000001 -4,4.000001 -3.555557,0 -4.000001,-0.444444 -4.000001,-4.000001 z"
     style="fill:#1a4900;stroke-width:1.33333337" />
  <path
     id="path1038"
     d="m 1.3333334,80.000003 c 0,-3.555557 0.4444444,-4.000001 4.0000001,-4.000001 3.5555557,0 4.0000001,0.444444 4.0000001,4.000001 0,3.555556 -0.4444444,4 -4.0000001,4 -3.5555557,0 -4.0000001,-0.444444 -4.0000001,-4 z"
     style="fill:#441a02;stroke-width:1.33333337" />
</svg>
