<?xml version="1.0" encoding="UTF-8" standalone="no"?>
<svg
   xmlns:dc="http://purl.org/dc/elements/1.1/"
   xmlns:cc="http://creativecommons.org/ns#"
   xmlns:rdf="http://www.w3.org/1999/02/22-rdf-syntax-ns#"
   xmlns:svg="http://www.w3.org/2000/svg"
   xmlns="http://www.w3.org/2000/svg"
   version="1.1"
   id="svg2"
   width="85.333336"
   height="85.333336"
   viewBox="0 0 85.333336 85.333336">
  <title
     id="title820">Software Logo</title>
  <metadata
     id="metadata8">
    <rdf:RDF>
      <cc:Work
         rdf:about="">
        <dc:format>image/svg+xml</dc:format>
        <dc:type
           rdf:resource="http://purl.org/dc/dcmitype/StillImage" />
        <dc:title>Software Logo</dc:title>
        <cc:license
           rdf:resource="http://creativecommons.org/publicdomain/zero/1.0/" />
        <dc:date>2019</dc:date>
        <dc:creator>
          <cc:Agent>
            <dc:title>N-z0</dc:title>
          </cc:Agent>
        </dc:creator>
        <dc:rights>
          <cc:Agent>
            <dc:title></dc:title>
          </cc:Agent>
        </dc:rights>
        <dc:publisher>
          <cc:Agent>
            <dc:title>https://github.com/N-z0</dc:title>
          </cc:Agent>
        </dc:publisher>
        <dc:identifier></dc:identifier>
        <dc:source>docs/contents/logo/logo.svg</dc:source>
        <dc:subject>
          <rdf:Bag>
            <rdf:li>software logo icon</rdf:li>
          </rdf:Bag>
        </dc:subject>
        <dc:coverage></dc:coverage>
        <dc:description>High contrasted logo icon for software projects.</dc:description>
      </cc:Work>
      <cc:License
         rdf:about="http://creativecommons.org/publicdomain/zero/1.0/">
        <cc:permits
           rdf:resource="http://creativecommons.org/ns#Reproduction" />
        <cc:permits
           rdf:resource="http://creativecommons.org/ns#Distribution" />
        <cc:permits
           rdf:resource="http://creativecommons.org/ns#DerivativeWorks" />
      </cc:License>
    </rdf:RDF>
  </metadata>
  <defs
     id="defs6" />
  <g
     id="g4538">
    <path
       style="fill:#fefefe;stroke-width:1.33333337"
       d="m 1.3333334,80.000003 c 0,-3.555557 0.4444444,-4.000001 4.0000001,-4.000001 3.5555557,0 4.0000001,0.444444 4.0000001,4.000001 0,3.555556 -0.4444444,4 -4.0000001,4 -3.5555557,0 -4.0000001,-0.444444 -4.0000001,-4 z m 10.6666666,0 c 0,-3.555557 0.444445,-4.000001 4,-4.000001 3.555557,0 4.000001,0.444444 4.000001,4.000001 0,3.555556 -0.444444,4 -4.000001,4 -3.555555,0 -4,-0.444444 -4,-4 z m 10.666667,0 c 0,-3.555557 0.444444,-4.000001 4.000001,-4.000001 3.555556,0 4,0.444444 4,4.000001 0,3.555556 -0.444444,4 -4,4 -3.555557,0 -4.000001,-0.444444 -4.000001,-4 z m 10.666667,0 c 0,-3.555557 0.444444,-4.000001 4,-4.000001 3.555557,0 4.000001,0.444444 4.000001,4.000001 0,3.555556 -0.444444,4 -4.000001,4 -3.555556,0 -4,-0.444444 -4,-4 z m 10.666667,0 c 0,-3.555557 0.444444,-4.000001 4.000001,-4.000001 3.555556,0 4,0.444444 4,4.000001 0,3.555556 -0.444444,4 -4,4 -3.555557,0 -4.000001,-0.444444 -4.000001,-4 z m 10.666667,0 c 0,-3.555557 0.444444,-4.000001 4,-4.000001 3.555557,0 4.000001,0.444444 4.000001,4.000001 0,3.555556 -0.444444,4 -4.000001,4 -3.555556,0 -4,-0.444444 -4,-4 z m 10.666667,0 c 0,-3.555557 0.444444,-4.000001 4.000001,-4.000001 3.555556,0 4,0.444444 4,4.000001 0,3.555556 -0.444444,4 -4,4 -3.555557,0 -4.000001,-0.444444 -4.000001,-4 z m 10.666667,0 c 0,-3.555557 0.444444,-4.000001 4.000001,-4.000001 3.555556,0 4,0.444444 4,4.000001 0,3.555556 -0.444444,4 -4,4 -3.555557,0 -4.000001,-0.444444 -4.000001,-4 z M 1.3333334,69.333336 c 0,-3.555557 0.4444444,-4.000001 4.0000001,-4.000001 3.5555557,0 4.0000001,0.444444 4.0000001,4.000001 0,3.555556 -0.4444444,4 -4.0000001,4 -3.5555557,0 -4.0000001,-0.444444 -4.0000001,-4 z m 10.6666666,0 c 0,-3.555557 0.444445,-4.000001 4,-4.000001 3.555557,0 4.000001,0.444444 4.000001,4.000001 0,3.555556 -0.444444,4 -4.000001,4 -3.555555,0 -4,-0.444444 -4,-4 z m 10.666667,0 c 0,-3.555557 0.444444,-4.000001 4.000001,-4.000001 3.555556,0 4,0.444444 4,4.000001 0,3.555556 -0.444444,4 -4,4 -3.555557,0 -4.000001,-0.444444 -4.000001,-4 z m 10.666667,0 c 0,-3.555557 0.444444,-4.000001 4,-4.000001 3.555557,0 4.000001,0.444444 4.000001,4.000001 0,3.555556 -0.444444,4 -4.000001,4 -3.555556,0 -4,-0.444444 -4,-4 z m 10.666667,0 c 0,-3.555557 0.444444,-4.000001 4.000001,-4.000001 3.555556,0 4,0.444444 4,4.000001 0,3.555556 -0.444444,4 -4,4 -3.555557,0 -4.000001,-0.444444 -4.000001,-4 z m 10.666667,0 c 0,-3.555557 0.444444,-4.000001 4,-4.000001 3.555557,0 4.000001,0.444444 4.000001,4.000001 0,3.555556 -0.444444,4 -4.000001,4 -3.555556,0 -4,-0.444444 -4,-4 z m 10.666667,0 c 0,-3.555557 0.444444,-4.000001 4.000001,-4.000001 3.555556,0 4,0.444444 4,4.000001 0,3.555556 -0.444444,4 -4,4 -3.555557,0 -4.000001,-0.444444 -4.000001,-4 z m 10.666667,0 c 0,-3.555557 0.444444,-4.000001 4.000001,-4.000001 3.555556,0 4,0.444444 4,4.000001 0,3.555556 -0.444444,4 -4,4 -3.555557,0 -4.000001,-0.444444 -4.000001,-4 z M 1.3333334,58.666668 c 0,-3.555556 0.4444444,-4 4.0000001,-4 3.5555557,0 4.0000001,0.444444 4.0000001,4 0,3.555557 -0.4444444,4.000001 -4.0000001,4.000001 -3.5555557,0 -4.0000001,-0.444444 -4.0000001,-4.000001 z m 10.6666666,0 c 0,-3.555556 0.444445,-4 4,-4 3.555557,0 4.000001,0.444444 4.000001,4 0,3.555557 -0.444444,4.000001 -4.000001,4.000001 -3.555555,0 -4,-0.444444 -4,-4.000001 z m 10.666667,0 c 0,-3.555556 0.444444,-4 4.000001,-4 3.555556,0 4,0.444444 4,4 0,3.555557 -0.444444,4.000001 -4,4.000001 -3.555557,0 -4.000001,-0.444444 -4.000001,-4.000001 z m 10.666667,0 c 0,-3.555556 0.444444,-4 4,-4 3.555557,0 4.000001,0.444444 4.000001,4 0,3.555557 -0.444444,4.000001 -4.000001,4.000001 -3.555556,0 -4,-0.444444 -4,-4.000001 z m 10.666667,0 c 0,-3.555556 0.444444,-4 4.000001,-4 3.555556,0 4,0.444444 4,4 0,3.555557 -0.444444,4.000001 -4,4.000001 -3.555557,0 -4.000001,-0.444444 -4.000001,-4.000001 z m 10.666667,0 c 0,-3.555556 0.444444,-4 4,-4 3.555557,0 4.000001,0.444444 4.000001,4 0,3.555557 -0.444444,4.000001 -4.000001,4.000001 -3.555556,0 -4,-0.444444 -4,-4.000001 z m 10.666667,0 c 0,-3.555556 0.444444,-4 4.000001,-4 3.555556,0 4,0.444444 4,4 0,3.555557 -0.444444,4.000001 -4,4.000001 -3.555557,0 -4.000001,-0.444444 -4.000001,-4.000001 z m 10.666667,0 c 0,-3.555556 0.444444,-4 4.000001,-4 3.555556,0 4,0.444444 4,4 0,3.555557 -0.444444,4.000001 -4,4.000001 -3.555557,0 -4.000001,-0.444444 -4.000001,-4.000001 z M 1.3333334,48.000002 c 0,-3.555557 0.4444444,-4.000001 4.0000001,-4.000001 3.5555557,0 4.0000001,0.444444 4.0000001,4.000001 0,3.555556 -0.4444444,4 -4.0000001,4 -3.5555557,0 -4.0000001,-0.444444 -4.0000001,-4 z m 10.6666666,0 c 0,-3.555557 0.444445,-4.000001 4,-4.000001 3.555557,0 4.000001,0.444444 4.000001,4.000001 0,3.555556 -0.444444,4 -4.000001,4 -3.555555,0 -4,-0.444444 -4,-4 z m 10.666667,0 c 0,-3.555557 0.444444,-4.000001 4.000001,-4.000001 3.555556,0 4,0.444444 4,4.000001 0,3.555556 -0.444444,4 -4,4 -3.555557,0 -4.000001,-0.444444 -4.000001,-4 z m 10.666667,0 c 0,-3.555557 0.444444,-4.000001 4,-4.000001 3.555557,0 4.000001,0.444444 4.000001,4.000001 0,3.555556 -0.444444,4 -4.000001,4 -3.555556,0 -4,-0.444444 -4,-4 z m 10.666667,0 c 0,-3.555557 0.444444,-4.000001 4.000001,-4.000001 3.555556,0 4,0.444444 4,4.000001 0,3.555556 -0.444444,4 -4,4 -3.555557,0 -4.000001,-0.444444 -4.000001,-4 z m 10.666667,0 c 0,-3.555557 0.444444,-4.000001 4,-4.000001 3.555557,0 4.000001,0.444444 4.000001,4.000001 0,3.555556 -0.444444,4 -4.000001,4 -3.555556,0 -4,-0.444444 -4,-4 z m 10.666667,0 c 0,-3.555557 0.444444,-4.000001 4.000001,-4.000001 3.555556,0 4,0.444444 4,4.000001 0,3.555556 -0.444444,4 -4,4 -3.555557,0 -4.000001,-0.444444 -4.000001,-4 z m 10.666667,0 c 0,-3.555557 0.444444,-4.000001 4.000001,-4.000001 3.555556,0 4,0.444444 4,4.000001 0,3.555556 -0.444444,4 -4,4 -3.555557,0 -4.000001,-0.444444 -4.000001,-4 z M 1.3333334,37.333334 c 0,-3.555556 0.4444444,-4 4.0000001,-4 3.5555557,0 4.0000001,0.444444 4.0000001,4 0,3.555557 -0.4444444,4.000001 -4.0000001,4.000001 -3.5555557,0 -4.0000001,-0.444444 -4.0000001,-4.000001 z m 10.6666666,0 c 0,-3.555556 0.444445,-4 4,-4 3.555557,0 4.000001,0.444444 4.000001,4 0,3.555557 -0.444444,4.000001 -4.000001,4.000001 -3.555555,0 -4,-0.444444 -4,-4.000001 z m 10.666667,0 c 0,-3.555556 0.444444,-4 4.000001,-4 3.555556,0 4,0.444444 4,4 0,3.555557 -0.444444,4.000001 -4,4.000001 -3.555557,0 -4.000001,-0.444444 -4.000001,-4.000001 z m 10.666667,0 c 0,-3.555556 0.444444,-4 4,-4 3.555557,0 4.000001,0.444444 4.000001,4 0,3.555557 -0.444444,4.000001 -4.000001,4.000001 -3.555556,0 -4,-0.444444 -4,-4.000001 z m 10.666667,0 c 0,-3.555556 0.444444,-4 4.000001,-4 3.555556,0 4,0.444444 4,4 0,3.555557 -0.444444,4.000001 -4,4.000001 -3.555557,0 -4.000001,-0.444444 -4.000001,-4.000001 z m 10.666667,0 c 0,-3.555556 0.444444,-4 4,-4 3.555557,0 4.000001,0.444444 4.000001,4 0,3.555557 -0.444444,4.000001 -4.000001,4.000001 -3.555556,0 -4,-0.444444 -4,-4.000001 z m 10.666667,0 c 0,-3.555556 0.444444,-4 4.000001,-4 3.555556,0 4,0.444444 4,4 0,3.555557 -0.444444,4.000001 -4,4.000001 -3.555557,0 -4.000001,-0.444444 -4.000001,-4.000001 z m 10.666667,0 c 0,-3.555556 0.444444,-4 4.000001,-4 3.555556,0 4,0.444444 4,4 0,3.555557 -0.444444,4.000001 -4,4.000001 -3.555557,0 -4.000001,-0.444444 -4.000001,-4.000001 z M 1.3333334,26.666668 c 0,-3.555557 0.4444444,-4.000001 4.0000001,-4.000001 3.5555557,0 4.0000001,0.444444 4.0000001,4.000001 0,3.555556 -0.4444444,4 -4.0000001,4 -3.5555557,0 -4.0000001,-0.444444 -4.0000001,-4 z m 10.6666666,0 c 0,-3.555557 0.444445,-4.000001 4,-4.000001 3.555557,0 4.000001,0.444444 4.000001,4.000001 0,3.555556 -0.444444,4 -4.000001,4 -3.555555,0 -4,-0.444444 -4,-4 z m 10.666667,0 c 0,-3.555557 0.444444,-4.000001 4.000001,-4.000001 3.555556,0 4,0.444444 4,4.000001 0,3.555556 -0.444444,4 -4,4 -3.555557,0 -4.000001,-0.444444 -4.000001,-4 z m 10.666667,0 c 0,-3.555557 0.444444,-4.000001 4,-4.000001 3.555557,0 4.000001,0.444444 4.000001,4.000001 0,3.555556 -0.444444,4 -4.000001,4 -3.555556,0 -4,-0.444444 -4,-4 z m 10.666667,0 c 0,-3.555557 0.444444,-4.000001 4.000001,-4.000001 3.555556,0 4,0.444444 4,4.000001 0,3.555556 -0.444444,4 -4,4 -3.555557,0 -4.000001,-0.444444 -4.000001,-4 z m 10.666667,0 c 0,-3.555557 0.444444,-4.000001 4,-4.000001 3.555557,0 4.000001,0.444444 4.000001,4.000001 0,3.555556 -0.444444,4 -4.000001,4 -3.555556,0 -4,-0.444444 -4,-4 z m 10.666667,0 c 0,-3.555557 0.444444,-4.000001 4.000001,-4.000001 3.555556,0 4,0.444444 4,4.000001 0,3.555556 -0.444444,4 -4,4 -3.555557,0 -4.000001,-0.444444 -4.000001,-4 z m 10.666667,0 c 0,-3.555557 0.444444,-4.000001 4.000001,-4.000001 3.555556,0 4,0.444444 4,4.000001 0,3.555556 -0.444444,4 -4,4 -3.555557,0 -4.000001,-0.444444 -4.000001,-4 z M 1.3333334,16 c 0,-3.555555 0.4444444,-4 4.0000001,-4 3.5555557,0 4.0000001,0.444445 4.0000001,4 0,3.555557 -0.4444444,4.000001 -4.0000001,4.000001 C 1.7777778,20.000001 1.3333334,19.555557 1.3333334,16 Z M 12,16 c 0,-3.555555 0.444445,-4 4,-4 3.555557,0 4.000001,0.444445 4.000001,4 0,3.555557 -0.444444,4.000001 -4.000001,4.000001 -3.555555,0 -4,-0.444444 -4,-4.000001 z m 10.666667,0 c 0,-3.555555 0.444444,-4 4.000001,-4 3.555556,0 4,0.444445 4,4 0,3.555557 -0.444444,4.000001 -4,4.000001 -3.555557,0 -4.000001,-0.444444 -4.000001,-4.000001 z m 10.666667,0 c 0,-3.555555 0.444444,-4 4,-4 3.555557,0 4.000001,0.444445 4.000001,4 0,3.555557 -0.444444,4.000001 -4.000001,4.000001 -3.555556,0 -4,-0.444444 -4,-4.000001 z m 10.666667,0 c 0,-3.555555 0.444444,-4 4.000001,-4 3.555556,0 4,0.444445 4,4 0,3.555557 -0.444444,4.000001 -4,4.000001 -3.555557,0 -4.000001,-0.444444 -4.000001,-4.000001 z m 10.666667,0 c 0,-3.555555 0.444444,-4 4,-4 3.555557,0 4.000001,0.444445 4.000001,4 0,3.555557 -0.444444,4.000001 -4.000001,4.000001 -3.555556,0 -4,-0.444444 -4,-4.000001 z m 10.666667,0 c 0,-3.555555 0.444444,-4 4.000001,-4 3.555556,0 4,0.444445 4,4 0,3.555557 -0.444444,4.000001 -4,4.000001 -3.555557,0 -4.000001,-0.444444 -4.000001,-4.000001 z m 10.666667,0 c 0,-3.555555 0.444444,-4 4.000001,-4 3.555556,0 4,0.444445 4,4 0,3.555557 -0.444444,4.000001 -4,4.000001 -3.555557,0 -4.000001,-0.444444 -4.000001,-4.000001 z M 1.3333334,5.3333335 c 0,-3.5555557 0.4444444,-4.0000001 4.0000001,-4.0000001 3.5555557,0 4.0000001,0.4444444 4.0000001,4.0000001 0,3.5555557 -0.4444444,4.0000001 -4.0000001,4.0000001 -3.5555557,0 -4.0000001,-0.4444444 -4.0000001,-4.0000001 z m 10.6666666,0 c 0,-3.5555557 0.444445,-4.0000001 4,-4.0000001 3.555557,0 4.000001,0.4444444 4.000001,4.0000001 0,3.5555557 -0.444444,4.0000001 -4.000001,4.0000001 -3.555555,0 -4,-0.4444444 -4,-4.0000001 z m 10.666667,0 c 0,-3.5555557 0.444444,-4.0000001 4.000001,-4.0000001 3.555556,0 4,0.4444444 4,4.0000001 0,3.5555557 -0.444444,4.0000001 -4,4.0000001 -3.555557,0 -4.000001,-0.4444444 -4.000001,-4.0000001 z m 10.666667,0 c 0,-3.5555557 0.444444,-4.0000001 4,-4.0000001 3.555557,0 4.000001,0.4444444 4.000001,4.0000001 0,3.5555557 -0.444444,4.0000001 -4.000001,4.0000001 -3.555556,0 -4,-0.4444444 -4,-4.0000001 z m 10.666667,0 c 0,-3.5555557 0.444444,-4.0000001 4.000001,-4.0000001 3.555556,0 4,0.4444444 4,4.0000001 0,3.5555557 -0.444444,4.0000001 -4,4.0000001 -3.555557,0 -4.000001,-0.4444444 -4.000001,-4.0000001 z m 10.666667,0 c 0,-3.5555557 0.444444,-4.0000001 4,-4.0000001 3.555557,0 4.000001,0.4444444 4.000001,4.0000001 0,3.5555557 -0.444444,4.0000001 -4.000001,4.0000001 -3.555556,0 -4,-0.4444444 -4,-4.0000001 z m 10.666667,0 c 0,-3.5555557 0.444444,-4.0000001 4.000001,-4.0000001 3.555556,0 4,0.4444444 4,4.0000001 0,3.5555557 -0.444444,4.0000001 -4,4.0000001 -3.555557,0 -4.000001,-0.4444444 -4.000001,-4.0000001 z m 10.666667,0 c 0,-3.5555557 0.444444,-4.0000001 4.000001,-4.0000001 3.555556,0 4,0.4444444 4,4.0000001 0,3.5555557 -0.444444,4.0000001 -4,4.0000001 -3.555557,0 -4.000001,-0.4444444 -4.000001,-4.0000001 z"
       id="path4554" />
    <path
       style="fill:#fefe00;stroke-width:1.33333337"
       d="m 1.3333334,80.000003 c 0,-3.555557 0.4444444,-4.000001 4.0000001,-4.000001 3.5555557,0 4.0000001,0.444444 4.0000001,4.000001 0,3.555556 -0.4444444,4 -4.0000001,4 -3.5555557,0 -4.0000001,-0.444444 -4.0000001,-4 z m 10.6666666,0 c 0,-3.555557 0.444445,-4.000001 4,-4.000001 3.555557,0 4.000001,0.444444 4.000001,4.000001 0,3.555556 -0.444444,4 -4.000001,4 -3.555555,0 -4,-0.444444 -4,-4 z m 10.666667,0 c 0,-3.555557 0.444444,-4.000001 4.000001,-4.000001 3.555556,0 4,0.444444 4,4.000001 0,3.555556 -0.444444,4 -4,4 -3.555557,0 -4.000001,-0.444444 -4.000001,-4 z m 10.666667,0 c 0,-3.555557 0.444444,-4.000001 4,-4.000001 3.555557,0 4.000001,0.444444 4.000001,4.000001 0,3.555556 -0.444444,4 -4.000001,4 -3.555556,0 -4,-0.444444 -4,-4 z m 10.666667,0 c 0,-3.555557 0.444444,-4.000001 4.000001,-4.000001 3.555556,0 4,0.444444 4,4.000001 0,3.555556 -0.444444,4 -4,4 -3.555557,0 -4.000001,-0.444444 -4.000001,-4 z m 10.666667,0 c 0,-3.555557 0.444444,-4.000001 4,-4.000001 3.555557,0 4.000001,0.444444 4.000001,4.000001 0,3.555556 -0.444444,4 -4.000001,4 -3.555556,0 -4,-0.444444 -4,-4 z m 10.666667,0 c 0,-3.555557 0.444444,-4.000001 4.000001,-4.000001 3.555556,0 4,0.444444 4,4.000001 0,3.555556 -0.444444,4 -4,4 -3.555557,0 -4.000001,-0.444444 -4.000001,-4 z m 10.666667,0 c 0,-3.555557 0.444444,-4.000001 4.000001,-4.000001 3.555556,0 4,0.444444 4,4.000001 0,3.555556 -0.444444,4 -4,4 -3.555557,0 -4.000001,-0.444444 -4.000001,-4 z M 1.3333334,69.333336 c 0,-3.555557 0.4444444,-4.000001 4.0000001,-4.000001 3.5555557,0 4.0000001,0.444444 4.0000001,4.000001 0,3.555556 -0.4444444,4 -4.0000001,4 -3.5555557,0 -4.0000001,-0.444444 -4.0000001,-4 z m 10.6666666,0 c 0,-3.555557 0.444445,-4.000001 4,-4.000001 3.555557,0 4.000001,0.444444 4.000001,4.000001 0,3.555556 -0.444444,4 -4.000001,4 -3.555555,0 -4,-0.444444 -4,-4 z m 10.666667,0 c 0,-3.555557 0.444444,-4.000001 4.000001,-4.000001 3.555556,0 4,0.444444 4,4.000001 0,3.555556 -0.444444,4 -4,4 -3.555557,0 -4.000001,-0.444444 -4.000001,-4 z m 10.666667,0 c 0,-3.555557 0.444444,-4.000001 4,-4.000001 3.555557,0 4.000001,0.444444 4.000001,4.000001 0,3.555556 -0.444444,4 -4.000001,4 -3.555556,0 -4,-0.444444 -4,-4 z m 21.333334,0 c 0,-3.555557 0.444444,-4.000001 4,-4.000001 3.555557,0 4.000001,0.444444 4.000001,4.000001 0,3.555556 -0.444444,4 -4.000001,4 -3.555556,0 -4,-0.444444 -4,-4 z m 10.666667,0 c 0,-3.555557 0.444444,-4.000001 4.000001,-4.000001 3.555556,0 4,0.444444 4,4.000001 0,3.555556 -0.444444,4 -4,4 -3.555557,0 -4.000001,-0.444444 -4.000001,-4 z m 10.666667,0 c 0,-3.555557 0.444444,-4.000001 4.000001,-4.000001 3.555556,0 4,0.444444 4,4.000001 0,3.555556 -0.444444,4 -4,4 -3.555557,0 -4.000001,-0.444444 -4.000001,-4 z M 1.3333334,58.666668 c 0,-3.555556 0.4444444,-4 4.0000001,-4 3.5555557,0 4.0000001,0.444444 4.0000001,4 0,3.555557 -0.4444444,4.000001 -4.0000001,4.000001 -3.5555557,0 -4.0000001,-0.444444 -4.0000001,-4.000001 z m 10.6666666,0 c 0,-3.555556 0.444445,-4 4,-4 3.555557,0 4.000001,0.444444 4.000001,4 0,3.555557 -0.444444,4.000001 -4.000001,4.000001 -3.555555,0 -4,-0.444444 -4,-4.000001 z m 21.333334,0 c 0,-3.555556 0.444444,-4 4,-4 3.555557,0 4.000001,0.444444 4.000001,4 0,3.555557 -0.444444,4.000001 -4.000001,4.000001 -3.555556,0 -4,-0.444444 -4,-4.000001 z m 32.000001,0 c 0,-3.555556 0.444444,-4 4.000001,-4 3.555556,0 4,0.444444 4,4 0,3.555557 -0.444444,4.000001 -4,4.000001 -3.555557,0 -4.000001,-0.444444 -4.000001,-4.000001 z m 10.666667,0 c 0,-3.555556 0.444444,-4 4.000001,-4 3.555556,0 4,0.444444 4,4 0,3.555557 -0.444444,4.000001 -4,4.000001 -3.555557,0 -4.000001,-0.444444 -4.000001,-4.000001 z M 1.3333334,48.000002 c 0,-3.555557 0.4444444,-4.000001 4.0000001,-4.000001 3.5555557,0 4.0000001,0.444444 4.0000001,4.000001 0,3.555556 -0.4444444,4 -4.0000001,4 -3.5555557,0 -4.0000001,-0.444444 -4.0000001,-4 z m 32.0000006,0 c 0,-3.555557 0.444444,-4.000001 4,-4.000001 3.555557,0 4.000001,0.444444 4.000001,4.000001 0,3.555556 -0.444444,4 -4.000001,4 -3.555556,0 -4,-0.444444 -4,-4 z m 21.333334,0 c 0,-3.555557 0.444444,-4.000001 4,-4.000001 3.555557,0 4.000001,0.444444 4.000001,4.000001 0,3.555556 -0.444444,4 -4.000001,4 -3.555556,0 -4,-0.444444 -4,-4 z m 21.333334,0 c 0,-3.555557 0.444444,-4.000001 4.000001,-4.000001 3.555556,0 4,0.444444 4,4.000001 0,3.555556 -0.444444,4 -4,4 -3.555557,0 -4.000001,-0.444444 -4.000001,-4 z M 1.3333334,37.333334 c 0,-3.555556 0.4444444,-4 4.0000001,-4 3.5555557,0 4.0000001,0.444444 4.0000001,4 0,3.555557 -0.4444444,4.000001 -4.0000001,4.000001 -3.5555557,0 -4.0000001,-0.444444 -4.0000001,-4.000001 z m 10.6666666,0 c 0,-3.555556 0.444445,-4 4,-4 3.555557,0 4.000001,0.444444 4.000001,4 0,3.555557 -0.444444,4.000001 -4.000001,4.000001 -3.555555,0 -4,-0.444444 -4,-4.000001 z m 32.000001,0 c 0,-3.555556 0.444444,-4 4.000001,-4 3.555556,0 4,0.444444 4,4 0,3.555557 -0.444444,4.000001 -4,4.000001 -3.555557,0 -4.000001,-0.444444 -4.000001,-4.000001 z m 21.333334,0 c 0,-3.555556 0.444444,-4 4.000001,-4 3.555556,0 4,0.444444 4,4 0,3.555557 -0.444444,4.000001 -4,4.000001 -3.555557,0 -4.000001,-0.444444 -4.000001,-4.000001 z m 10.666667,0 c 0,-3.555556 0.444444,-4 4.000001,-4 3.555556,0 4,0.444444 4,4 0,3.555557 -0.444444,4.000001 -4,4.000001 -3.555557,0 -4.000001,-0.444444 -4.000001,-4.000001 z M 1.3333334,26.666668 c 0,-3.555557 0.4444444,-4.000001 4.0000001,-4.000001 3.5555557,0 4.0000001,0.444444 4.0000001,4.000001 0,3.555556 -0.4444444,4 -4.0000001,4 -3.5555557,0 -4.0000001,-0.444444 -4.0000001,-4 z m 10.6666666,0 c 0,-3.555557 0.444445,-4.000001 4,-4.000001 3.555557,0 4.000001,0.444444 4.000001,4.000001 0,3.555556 -0.444444,4 -4.000001,4 -3.555555,0 -4,-0.444444 -4,-4 z m 10.666667,0 c 0,-3.555557 0.444444,-4.000001 4.000001,-4.000001 3.555556,0 4,0.444444 4,4.000001 0,3.555556 -0.444444,4 -4,4 -3.555557,0 -4.000001,-0.444444 -4.000001,-4 z m 42.666668,0 c 0,-3.555557 0.444444,-4.000001 4.000001,-4.000001 3.555556,0 4,0.444444 4,4.000001 0,3.555556 -0.444444,4 -4,4 -3.555557,0 -4.000001,-0.444444 -4.000001,-4 z m 10.666667,0 c 0,-3.555557 0.444444,-4.000001 4.000001,-4.000001 3.555556,0 4,0.444444 4,4.000001 0,3.555556 -0.444444,4 -4,4 -3.555557,0 -4.000001,-0.444444 -4.000001,-4 z M 1.3333334,16 c 0,-3.555555 0.4444444,-4 4.0000001,-4 3.5555557,0 4.0000001,0.444445 4.0000001,4 0,3.555557 -0.4444444,4.000001 -4.0000001,4.000001 C 1.7777778,20.000001 1.3333334,19.555557 1.3333334,16 Z M 12,16 c 0,-3.555555 0.444445,-4 4,-4 3.555557,0 4.000001,0.444445 4.000001,4 0,3.555557 -0.444444,4.000001 -4.000001,4.000001 -3.555555,0 -4,-0.444444 -4,-4.000001 z m 10.666667,0 c 0,-3.555555 0.444444,-4 4.000001,-4 3.555556,0 4,0.444445 4,4 0,3.555557 -0.444444,4.000001 -4,4.000001 -3.555557,0 -4.000001,-0.444444 -4.000001,-4.000001 z m 10.666667,0 c 0,-3.555555 0.444444,-4 4,-4 3.555557,0 4.000001,0.444445 4.000001,4 0,3.555557 -0.444444,4.000001 -4.000001,4.000001 -3.555556,0 -4,-0.444444 -4,-4.000001 z m 21.333334,0 c 0,-3.555555 0.444444,-4 4,-4 3.555557,0 4.000001,0.444445 4.000001,4 0,3.555557 -0.444444,4.000001 -4.000001,4.000001 -3.555556,0 -4,-0.444444 -4,-4.000001 z m 10.666667,0 c 0,-3.555555 0.444444,-4 4.000001,-4 3.555556,0 4,0.444445 4,4 0,3.555557 -0.444444,4.000001 -4,4.000001 -3.555557,0 -4.000001,-0.444444 -4.000001,-4.000001 z m 10.666667,0 c 0,-3.555555 0.444444,-4 4.000001,-4 3.555556,0 4,0.444445 4,4 0,3.555557 -0.444444,4.000001 -4,4.000001 -3.555557,0 -4.000001,-0.444444 -4.000001,-4.000001 z M 1.3333334,5.3333335 c 0,-3.5555557 0.4444444,-4.0000001 4.0000001,-4.0000001 3.5555557,0 4.0000001,0.4444444 4.0000001,4.0000001 0,3.5555557 -0.4444444,4.0000001 -4.0000001,4.0000001 -3.5555557,0 -4.0000001,-0.4444444 -4.0000001,-4.0000001 z m 10.6666666,0 c 0,-3.5555557 0.444445,-4.0000001 4,-4.0000001 3.555557,0 4.000001,0.4444444 4.000001,4.0000001 0,3.5555557 -0.444444,4.0000001 -4.000001,4.0000001 -3.555555,0 -4,-0.4444444 -4,-4.0000001 z m 10.666667,0 c 0,-3.5555557 0.444444,-4.0000001 4.000001,-4.0000001 3.555556,0 4,0.4444444 4,4.0000001 0,3.5555557 -0.444444,4.0000001 -4,4.0000001 -3.555557,0 -4.000001,-0.4444444 -4.000001,-4.0000001 z m 10.666667,0 c 0,-3.5555557 0.444444,-4.0000001 4,-4.0000001 3.555557,0 4.000001,0.4444444 4.000001,4.0000001 0,3.5555557 -0.444444,4.0000001 -4.000001,4.0000001 -3.555556,0 -4,-0.4444444 -4,-4.0000001 z m 10.666667,0 c 0,-3.5555557 0.444444,-4.0000001 4.000001,-4.0000001 3.555556,0 4,0.4444444 4,4.0000001 0,3.5555557 -0.444444,4.0000001 -4,4.0000001 -3.555557,0 -4.000001,-0.4444444 -4.000001,-4.0000001 z m 10.666667,0 c 0,-3.5555557 0.444444,-4.0000001 4,-4.0000001 3.555557,0 4.000001,0.4444444 4.000001,4.0000001 0,3.5555557 -0.444444,4.0000001 -4.000001,4.0000001 -3.555556,0 -4,-0.4444444 -4,-4.0000001 z m 10.666667,0 c 0,-3.5555557 0.444444,-4.0000001 4.000001,-4.0000001 3.555556,0 4,0.4444444 4,4.0000001 0,3.5555557 -0.444444,4.0000001 -4,4.0000001 -3.555557,0 -4.000001,-0.4444444 -4.000001,-4.0000001 z m 10.666667,0 c 0,-3.5555557 0.444444,-4.0000001 4.000001,-4.0000001 3.555556,0 4,0.4444444 4,4.0000001 0,3.5555557 -0.444444,4.0000001 -4,4.0000001 -3.555557,0 -4.000001,-0.4444444 -4.000001,-4.0000001 z"
       id="path4552" />
    <path
       style="fill:#fe00fe;stroke-width:1.33333337"
       d="m 1.3333334,80.000003 c 0,-3.555557 0.4444444,-4.000001 4.0000001,-4.000001 3.5555557,0 4.0000001,0.444444 4.0000001,4.000001 0,3.555556 -0.4444444,4 -4.0000001,4 -3.5555557,0 -4.0000001,-0.444444 -4.0000001,-4 z m 10.6666666,0 c 0,-3.555557 0.444445,-4.000001 4,-4.000001 3.555557,0 4.000001,0.444444 4.000001,4.000001 0,3.555556 -0.444444,4 -4.000001,4 -3.555555,0 -4,-0.444444 -4,-4 z m 10.666667,0 c 0,-3.555557 0.444444,-4.000001 4.000001,-4.000001 3.555556,0 4,0.444444 4,4.000001 0,3.555556 -0.444444,4 -4,4 -3.555557,0 -4.000001,-0.444444 -4.000001,-4 z m 10.666667,0 c 0,-3.555557 0.444444,-4.000001 4,-4.000001 3.555557,0 4.000001,0.444444 4.000001,4.000001 0,3.555556 -0.444444,4 -4.000001,4 -3.555556,0 -4,-0.444444 -4,-4 z m 10.666667,0 c 0,-3.555557 0.444444,-4.000001 4.000001,-4.000001 3.555556,0 4,0.444444 4,4.000001 0,3.555556 -0.444444,4 -4,4 -3.555557,0 -4.000001,-0.444444 -4.000001,-4 z m 10.666667,0 c 0,-3.555557 0.444444,-4.000001 4,-4.000001 3.555557,0 4.000001,0.444444 4.000001,4.000001 0,3.555556 -0.444444,4 -4.000001,4 -3.555556,0 -4,-0.444444 -4,-4 z m 10.666667,0 c 0,-3.555557 0.444444,-4.000001 4.000001,-4.000001 3.555556,0 4,0.444444 4,4.000001 0,3.555556 -0.444444,4 -4,4 -3.555557,0 -4.000001,-0.444444 -4.000001,-4 z m 10.666667,0 c 0,-3.555557 0.444444,-4.000001 4.000001,-4.000001 3.555556,0 4,0.444444 4,4.000001 0,3.555556 -0.444444,4 -4,4 -3.555557,0 -4.000001,-0.444444 -4.000001,-4 z M 1.3333334,69.333336 c 0,-3.555557 0.4444444,-4.000001 4.0000001,-4.000001 3.5555557,0 4.0000001,0.444444 4.0000001,4.000001 0,3.555556 -0.4444444,4 -4.0000001,4 -3.5555557,0 -4.0000001,-0.444444 -4.0000001,-4 z m 10.6666666,0 c 0,-3.555557 0.444445,-4.000001 4,-4.000001 3.555557,0 4.000001,0.444444 4.000001,4.000001 0,3.555556 -0.444444,4 -4.000001,4 -3.555555,0 -4,-0.444444 -4,-4 z m 10.666667,0 c 0,-3.555557 0.444444,-4.000001 4.000001,-4.000001 3.555556,0 4,0.444444 4,4.000001 0,3.555556 -0.444444,4 -4,4 -3.555557,0 -4.000001,-0.444444 -4.000001,-4 z m 10.666667,0 c 0,-3.555557 0.444444,-4.000001 4,-4.000001 3.555557,0 4.000001,0.444444 4.000001,4.000001 0,3.555556 -0.444444,4 -4.000001,4 -3.555556,0 -4,-0.444444 -4,-4 z m 21.333334,0 c 0,-3.555557 0.444444,-4.000001 4,-4.000001 3.555557,0 4.000001,0.444444 4.000001,4.000001 0,3.555556 -0.444444,4 -4.000001,4 -3.555556,0 -4,-0.444444 -4,-4 z m 10.666667,0 c 0,-3.555557 0.444444,-4.000001 4.000001,-4.000001 3.555556,0 4,0.444444 4,4.000001 0,3.555556 -0.444444,4 -4,4 -3.555557,0 -4.000001,-0.444444 -4.000001,-4 z m 10.666667,0 c 0,-3.555557 0.444444,-4.000001 4.000001,-4.000001 3.555556,0 4,0.444444 4,4.000001 0,3.555556 -0.444444,4 -4,4 -3.555557,0 -4.000001,-0.444444 -4.000001,-4 z M 1.3333334,58.666668 c 0,-3.555556 0.4444444,-4 4.0000001,-4 3.5555557,0 4.0000001,0.444444 4.0000001,4 0,3.555557 -0.4444444,4.000001 -4.0000001,4.000001 -3.5555557,0 -4.0000001,-0.444444 -4.0000001,-4.000001 z m 10.6666666,0 c 0,-3.555556 0.444445,-4 4,-4 3.555557,0 4.000001,0.444444 4.000001,4 0,3.555557 -0.444444,4.000001 -4.000001,4.000001 -3.555555,0 -4,-0.444444 -4,-4.000001 z m 53.333335,0 c 0,-3.555556 0.444444,-4 4.000001,-4 3.555556,0 4,0.444444 4,4 0,3.555557 -0.444444,4.000001 -4,4.000001 -3.555557,0 -4.000001,-0.444444 -4.000001,-4.000001 z m 10.666667,0 c 0,-3.555556 0.444444,-4 4.000001,-4 3.555556,0 4,0.444444 4,4 0,3.555557 -0.444444,4.000001 -4,4.000001 -3.555557,0 -4.000001,-0.444444 -4.000001,-4.000001 z M 1.3333334,48.000002 c 0,-3.555557 0.4444444,-4.000001 4.0000001,-4.000001 3.5555557,0 4.0000001,0.444444 4.0000001,4.000001 0,3.555556 -0.4444444,4 -4.0000001,4 -3.5555557,0 -4.0000001,-0.444444 -4.0000001,-4 z m 74.6666686,0 c 0,-3.555557 0.444444,-4.000001 4.000001,-4.000001 3.555556,0 4,0.444444 4,4.000001 0,3.555556 -0.444444,4 -4,4 -3.555557,0 -4.000001,-0.444444 -4.000001,-4 z M 1.3333334,37.333334 c 0,-3.555556 0.4444444,-4 4.0000001,-4 3.5555557,0 4.0000001,0.444444 4.0000001,4 0,3.555557 -0.4444444,4.000001 -4.0000001,4.000001 -3.5555557,0 -4.0000001,-0.444444 -4.0000001,-4.000001 z m 74.6666686,0 c 0,-3.555556 0.444444,-4 4.000001,-4 3.555556,0 4,0.444444 4,4 0,3.555557 -0.444444,4.000001 -4,4.000001 -3.555557,0 -4.000001,-0.444444 -4.000001,-4.000001 z M 1.3333334,26.666668 c 0,-3.555557 0.4444444,-4.000001 4.0000001,-4.000001 3.5555557,0 4.0000001,0.444444 4.0000001,4.000001 0,3.555556 -0.4444444,4 -4.0000001,4 -3.5555557,0 -4.0000001,-0.444444 -4.0000001,-4 z m 10.6666666,0 c 0,-3.555557 0.444445,-4.000001 4,-4.000001 3.555557,0 4.000001,0.444444 4.000001,4.000001 0,3.555556 -0.444444,4 -4.000001,4 -3.555555,0 -4,-0.444444 -4,-4 z m 64.000002,0 c 0,-3.555557 0.444444,-4.000001 4.000001,-4.000001 3.555556,0 4,0.444444 4,4.000001 0,3.555556 -0.444444,4 -4,4 -3.555557,0 -4.000001,-0.444444 -4.000001,-4 z M 1.3333334,16 c 0,-3.555555 0.4444444,-4 4.0000001,-4 3.5555557,0 4.0000001,0.444445 4.0000001,4 0,3.555557 -0.4444444,4.000001 -4.0000001,4.000001 C 1.7777778,20.000001 1.3333334,19.555557 1.3333334,16 Z M 12,16 c 0,-3.555555 0.444445,-4 4,-4 3.555557,0 4.000001,0.444445 4.000001,4 0,3.555557 -0.444444,4.000001 -4.000001,4.000001 -3.555555,0 -4,-0.444444 -4,-4.000001 z m 10.666667,0 c 0,-3.555555 0.444444,-4 4.000001,-4 3.555556,0 4,0.444445 4,4 0,3.555557 -0.444444,4.000001 -4,4.000001 -3.555557,0 -4.000001,-0.444444 -4.000001,-4.000001 z m 32.000001,0 c 0,-3.555555 0.444444,-4 4,-4 3.555557,0 4.000001,0.444445 4.000001,4 0,3.555557 -0.444444,4.000001 -4.000001,4.000001 -3.555556,0 -4,-0.444444 -4,-4.000001 z m 10.666667,0 c 0,-3.555555 0.444444,-4 4.000001,-4 3.555556,0 4,0.444445 4,4 0,3.555557 -0.444444,4.000001 -4,4.000001 -3.555557,0 -4.000001,-0.444444 -4.000001,-4.000001 z m 10.666667,0 c 0,-3.555555 0.444444,-4 4.000001,-4 3.555556,0 4,0.444445 4,4 0,3.555557 -0.444444,4.000001 -4,4.000001 -3.555557,0 -4.000001,-0.444444 -4.000001,-4.000001 z M 1.3333334,5.3333335 c 0,-3.5555557 0.4444444,-4.0000001 4.0000001,-4.0000001 3.5555557,0 4.0000001,0.4444444 4.0000001,4.0000001 0,3.5555557 -0.4444444,4.0000001 -4.0000001,4.0000001 -3.5555557,0 -4.0000001,-0.4444444 -4.0000001,-4.0000001 z m 10.6666666,0 c 0,-3.5555557 0.444445,-4.0000001 4,-4.0000001 3.555557,0 4.000001,0.4444444 4.000001,4.0000001 0,3.5555557 -0.444444,4.0000001 -4.000001,4.0000001 -3.555555,0 -4,-0.4444444 -4,-4.0000001 z m 10.666667,0 c 0,-3.5555557 0.444444,-4.0000001 4.000001,-4.0000001 3.555556,0 4,0.4444444 4,4.0000001 0,3.5555557 -0.444444,4.0000001 -4,4.0000001 -3.555557,0 -4.000001,-0.4444444 -4.000001,-4.0000001 z m 10.666667,0 c 0,-3.5555557 0.444444,-4.0000001 4,-4.0000001 3.555557,0 4.000001,0.4444444 4.000001,4.0000001 0,3.5555557 -0.444444,4.0000001 -4.000001,4.0000001 -3.555556,0 -4,-0.4444444 -4,-4.0000001 z m 10.666667,0 c 0,-3.5555557 0.444444,-4.0000001 4.000001,-4.0000001 3.555556,0 4,0.4444444 4,4.0000001 0,3.5555557 -0.444444,4.0000001 -4,4.0000001 -3.555557,0 -4.000001,-0.4444444 -4.000001,-4.0000001 z m 10.666667,0 c 0,-3.5555557 0.444444,-4.0000001 4,-4.0000001 3.555557,0 4.000001,0.4444444 4.000001,4.0000001 0,3.5555557 -0.444444,4.0000001 -4.000001,4.0000001 -3.555556,0 -4,-0.4444444 -4,-4.0000001 z m 10.666667,0 c 0,-3.5555557 0.444444,-4.0000001 4.000001,-4.0000001 3.555556,0 4,0.4444444 4,4.0000001 0,3.5555557 -0.444444,4.0000001 -4,4.0000001 -3.555557,0 -4.000001,-0.4444444 -4.000001,-4.0000001 z m 10.666667,0 c 0,-3.5555557 0.444444,-4.0000001 4.000001,-4.0000001 3.555556,0 4,0.4444444 4,4.0000001 0,3.5555557 -0.444444,4.0000001 -4,4.0000001 -3.555557,0 -4.000001,-0.4444444 -4.000001,-4.0000001 z"
       id="path4550" />
    <path
       style="fill:#00fefe;stroke-width:1.33333337"
       d="m 1.3333334,80.000003 c 0,-3.555557 0.4444444,-4.000001 4.0000001,-4.000001 3.5555557,0 4.0000001,0.444444 4.0000001,4.000001 0,3.555556 -0.4444444,4 -4.0000001,4 -3.5555557,0 -4.0000001,-0.444444 -4.0000001,-4 z m 10.6666666,0 c 0,-3.555557 0.444445,-4.000001 4,-4.000001 3.555557,0 4.000001,0.444444 4.000001,4.000001 0,3.555556 -0.444444,4 -4.000001,4 -3.555555,0 -4,-0.444444 -4,-4 z m 10.666667,0 c 0,-3.555557 0.444444,-4.000001 4.000001,-4.000001 3.555556,0 4,0.444444 4,4.000001 0,3.555556 -0.444444,4 -4,4 -3.555557,0 -4.000001,-0.444444 -4.000001,-4 z m 10.666667,0 c 0,-3.555557 0.444444,-4.000001 4,-4.000001 3.555557,0 4.000001,0.444444 4.000001,4.000001 0,3.555556 -0.444444,4 -4.000001,4 -3.555556,0 -4,-0.444444 -4,-4 z m 10.666667,0 c 0,-3.555557 0.444444,-4.000001 4.000001,-4.000001 3.555556,0 4,0.444444 4,4.000001 0,3.555556 -0.444444,4 -4,4 -3.555557,0 -4.000001,-0.444444 -4.000001,-4 z m 10.666667,0 c 0,-3.555557 0.444444,-4.000001 4,-4.000001 3.555557,0 4.000001,0.444444 4.000001,4.000001 0,3.555556 -0.444444,4 -4.000001,4 -3.555556,0 -4,-0.444444 -4,-4 z m 10.666667,0 c 0,-3.555557 0.444444,-4.000001 4.000001,-4.000001 3.555556,0 4,0.444444 4,4.000001 0,3.555556 -0.444444,4 -4,4 -3.555557,0 -4.000001,-0.444444 -4.000001,-4 z m 10.666667,0 c 0,-3.555557 0.444444,-4.000001 4.000001,-4.000001 3.555556,0 4,0.444444 4,4.000001 0,3.555556 -0.444444,4 -4,4 -3.555557,0 -4.000001,-0.444444 -4.000001,-4 z M 1.3333334,69.333336 c 0,-3.555557 0.4444444,-4.000001 4.0000001,-4.000001 3.5555557,0 4.0000001,0.444444 4.0000001,4.000001 0,3.555556 -0.4444444,4 -4.0000001,4 -3.5555557,0 -4.0000001,-0.444444 -4.0000001,-4 z m 10.6666666,0 c 0,-3.555557 0.444445,-4.000001 4,-4.000001 3.555557,0 4.000001,0.444444 4.000001,4.000001 0,3.555556 -0.444444,4 -4.000001,4 -3.555555,0 -4,-0.444444 -4,-4 z m 10.666667,0 c 0,-3.555557 0.444444,-4.000001 4.000001,-4.000001 3.555556,0 4,0.444444 4,4.000001 0,3.555556 -0.444444,4 -4,4 -3.555557,0 -4.000001,-0.444444 -4.000001,-4 z m 10.666667,0 c 0,-3.555557 0.444444,-4.000001 4,-4.000001 3.555557,0 4.000001,0.444444 4.000001,4.000001 0,3.555556 -0.444444,4 -4.000001,4 -3.555556,0 -4,-0.444444 -4,-4 z m 21.333334,0 c 0,-3.555557 0.444444,-4.000001 4,-4.000001 3.555557,0 4.000001,0.444444 4.000001,4.000001 0,3.555556 -0.444444,4 -4.000001,4 -3.555556,0 -4,-0.444444 -4,-4 z m 10.666667,0 c 0,-3.555557 0.444444,-4.000001 4.000001,-4.000001 3.555556,0 4,0.444444 4,4.000001 0,3.555556 -0.444444,4 -4,4 -3.555557,0 -4.000001,-0.444444 -4.000001,-4 z m 10.666667,0 c 0,-3.555557 0.444444,-4.000001 4.000001,-4.000001 3.555556,0 4,0.444444 4,4.000001 0,3.555556 -0.444444,4 -4,4 -3.555557,0 -4.000001,-0.444444 -4.000001,-4 z M 1.3333334,58.666668 c 0,-3.555556 0.4444444,-4 4.0000001,-4 3.5555557,0 4.0000001,0.444444 4.0000001,4 0,3.555557 -0.4444444,4.000001 -4.0000001,4.000001 -3.5555557,0 -4.0000001,-0.444444 -4.0000001,-4.000001 z m 64.0000016,0 c 0,-3.555556 0.444444,-4 4.000001,-4 3.555556,0 4,0.444444 4,4 0,3.555557 -0.444444,4.000001 -4,4.000001 -3.555557,0 -4.000001,-0.444444 -4.000001,-4.000001 z m 10.666667,0 c 0,-3.555556 0.444444,-4 4.000001,-4 3.555556,0 4,0.444444 4,4 0,3.555557 -0.444444,4.000001 -4,4.000001 -3.555557,0 -4.000001,-0.444444 -4.000001,-4.000001 z M 1.3333334,48.000002 c 0,-3.555557 0.4444444,-4.000001 4.0000001,-4.000001 3.5555557,0 4.0000001,0.444444 4.0000001,4.000001 0,3.555556 -0.4444444,4 -4.0000001,4 -3.5555557,0 -4.0000001,-0.444444 -4.0000001,-4 z m 0,-10.666668 c 0,-3.555556 0.4444444,-4 4.0000001,-4 3.5555557,0 4.0000001,0.444444 4.0000001,4 0,3.555557 -0.4444444,4.000001 -4.0000001,4.000001 -3.5555557,0 -4.0000001,-0.444444 -4.0000001,-4.000001 z m 74.6666686,0 c 0,-3.555556 0.444444,-4 4.000001,-4 3.555556,0 4,0.444444 4,4 0,3.555557 -0.444444,4.000001 -4,4.000001 -3.555557,0 -4.000001,-0.444444 -4.000001,-4.000001 z M 1.3333334,26.666668 c 0,-3.555557 0.4444444,-4.000001 4.0000001,-4.000001 3.5555557,0 4.0000001,0.444444 4.0000001,4.000001 0,3.555556 -0.4444444,4 -4.0000001,4 -3.5555557,0 -4.0000001,-0.444444 -4.0000001,-4 z m 10.6666666,0 c 0,-3.555557 0.444445,-4.000001 4,-4.000001 3.555557,0 4.000001,0.444444 4.000001,4.000001 0,3.555556 -0.444444,4 -4.000001,4 -3.555555,0 -4,-0.444444 -4,-4 z m 64.000002,0 c 0,-3.555557 0.444444,-4.000001 4.000001,-4.000001 3.555556,0 4,0.444444 4,4.000001 0,3.555556 -0.444444,4 -4,4 -3.555557,0 -4.000001,-0.444444 -4.000001,-4 z M 1.3333334,16 c 0,-3.555555 0.4444444,-4 4.0000001,-4 3.5555557,0 4.0000001,0.444445 4.0000001,4 0,3.555557 -0.4444444,4.000001 -4.0000001,4.000001 -3.5555557,0 -4.0000001,-0.444444 -4.0000001,-4.000001 z m 21.3333336,0 c 0,-3.555555 0.444444,-4 4.000001,-4 3.555556,0 4,0.444445 4,4 0,3.555557 -0.444444,4.000001 -4,4.000001 -3.555557,0 -4.000001,-0.444444 -4.000001,-4.000001 z m 32.000001,0 c 0,-3.555555 0.444444,-4 4,-4 3.555557,0 4.000001,0.444445 4.000001,4 0,3.555557 -0.444444,4.000001 -4.000001,4.000001 -3.555556,0 -4,-0.444444 -4,-4.000001 z m 10.666667,0 c 0,-3.555555 0.444444,-4 4.000001,-4 3.555556,0 4,0.444445 4,4 0,3.555557 -0.444444,4.000001 -4,4.000001 -3.555557,0 -4.000001,-0.444444 -4.000001,-4.000001 z m 10.666667,0 c 0,-3.555555 0.444444,-4 4.000001,-4 3.555556,0 4,0.444445 4,4 0,3.555557 -0.444444,4.000001 -4,4.000001 -3.555557,0 -4.000001,-0.444444 -4.000001,-4.000001 z M 1.3333334,5.3333335 c 0,-3.5555557 0.4444444,-4.0000001 4.0000001,-4.0000001 3.5555557,0 4.0000001,0.4444444 4.0000001,4.0000001 0,3.5555557 -0.4444444,4.0000001 -4.0000001,4.0000001 -3.5555557,0 -4.0000001,-0.4444444 -4.0000001,-4.0000001 z m 10.6666666,0 c 0,-3.5555557 0.444445,-4.0000001 4,-4.0000001 3.555557,0 4.000001,0.4444444 4.000001,4.0000001 0,3.5555557 -0.444444,4.0000001 -4.000001,4.0000001 -3.555555,0 -4,-0.4444444 -4,-4.0000001 z m 10.666667,0 c 0,-3.5555557 0.444444,-4.0000001 4.000001,-4.0000001 3.555556,0 4,0.4444444 4,4.0000001 0,3.5555557 -0.444444,4.0000001 -4,4.0000001 -3.555557,0 -4.000001,-0.4444444 -4.000001,-4.0000001 z m 10.666667,0 c 0,-3.5555557 0.444444,-4.0000001 4,-4.0000001 3.555557,0 4.000001,0.4444444 4.000001,4.0000001 0,3.5555557 -0.444444,4.0000001 -4.000001,4.0000001 -3.555556,0 -4,-0.4444444 -4,-4.0000001 z m 10.666667,0 c 0,-3.5555557 0.444444,-4.0000001 4.000001,-4.0000001 3.555556,0 4,0.4444444 4,4.0000001 0,3.5555557 -0.444444,4.0000001 -4,4.0000001 -3.555557,0 -4.000001,-0.4444444 -4.000001,-4.0000001 z m 10.666667,0 c 0,-3.5555557 0.444444,-4.0000001 4,-4.0000001 3.555557,0 4.000001,0.4444444 4.000001,4.0000001 0,3.5555557 -0.444444,4.0000001 -4.000001,4.0000001 -3.555556,0 -4,-0.4444444 -4,-4.0000001 z m 21.333334,0 c 0,-3.5555557 0.444444,-4.0000001 4.000001,-4.0000001 3.555556,0 4,0.4444444 4,4.0000001 0,3.5555557 -0.444444,4.0000001 -4,4.0000001 -3.555557,0 -4.000001,-0.4444444 -4.000001,-4.0000001 z"
       id="path4548" />
    <path
       style="fill:#fe0000;stroke-width:1.33333337"
       d="m 1.3333334,80.000003 c 0,-3.555557 0.4444444,-4.000001 4.0000001,-4.000001 3.5555557,0 4.0000001,0.444444 4.0000001,4.000001 0,3.555556 -0.4444444,4 -4.0000001,4 -3.5555557,0 -4.0000001,-0.444444 -4.0000001,-4 z m 10.6666666,0 c 0,-3.555557 0.444445,-4.000001 4,-4.000001 3.555557,0 4.000001,0.444444 4.000001,4.000001 0,3.555556 -0.444444,4 -4.000001,4 -3.555555,0 -4,-0.444444 -4,-4 z m 10.666667,0 c 0,-3.555557 0.444444,-4.000001 4.000001,-4.000001 3.555556,0 4,0.444444 4,4.000001 0,3.555556 -0.444444,4 -4,4 -3.555557,0 -4.000001,-0.444444 -4.000001,-4 z m 10.666667,0 c 0,-3.555557 0.444444,-4.000001 4,-4.000001 3.555557,0 4.000001,0.444444 4.000001,4.000001 0,3.555556 -0.444444,4 -4.000001,4 -3.555556,0 -4,-0.444444 -4,-4 z m 10.666667,0 c 0,-3.555557 0.444444,-4.000001 4.000001,-4.000001 3.555556,0 4,0.444444 4,4.000001 0,3.555556 -0.444444,4 -4,4 -3.555557,0 -4.000001,-0.444444 -4.000001,-4 z m 10.666667,0 c 0,-3.555557 0.444444,-4.000001 4,-4.000001 3.555557,0 4.000001,0.444444 4.000001,4.000001 0,3.555556 -0.444444,4 -4.000001,4 -3.555556,0 -4,-0.444444 -4,-4 z m 10.666667,0 c 0,-3.555557 0.444444,-4.000001 4.000001,-4.000001 3.555556,0 4,0.444444 4,4.000001 0,3.555556 -0.444444,4 -4,4 -3.555557,0 -4.000001,-0.444444 -4.000001,-4 z m 10.666667,0 c 0,-3.555557 0.444444,-4.000001 4.000001,-4.000001 3.555556,0 4,0.444444 4,4.000001 0,3.555556 -0.444444,4 -4,4 -3.555557,0 -4.000001,-0.444444 -4.000001,-4 z M 1.3333334,69.333336 c 0,-3.555557 0.4444444,-4.000001 4.0000001,-4.000001 3.5555557,0 4.0000001,0.444444 4.0000001,4.000001 0,3.555556 -0.4444444,4 -4.0000001,4 -3.5555557,0 -4.0000001,-0.444444 -4.0000001,-4 z m 21.3333336,0 c 0,-3.555557 0.444444,-4.000001 4.000001,-4.000001 3.555556,0 4,0.444444 4,4.000001 0,3.555556 -0.444444,4 -4,4 -3.555557,0 -4.000001,-0.444444 -4.000001,-4 z m 10.666667,0 c 0,-3.555557 0.444444,-4.000001 4,-4.000001 3.555557,0 4.000001,0.444444 4.000001,4.000001 0,3.555556 -0.444444,4 -4.000001,4 -3.555556,0 -4,-0.444444 -4,-4 z m 21.333334,0 c 0,-3.555557 0.444444,-4.000001 4,-4.000001 3.555557,0 4.000001,0.444444 4.000001,4.000001 0,3.555556 -0.444444,4 -4.000001,4 -3.555556,0 -4,-0.444444 -4,-4 z m 10.666667,0 c 0,-3.555557 0.444444,-4.000001 4.000001,-4.000001 3.555556,0 4,0.444444 4,4.000001 0,3.555556 -0.444444,4 -4,4 -3.555557,0 -4.000001,-0.444444 -4.000001,-4 z m 10.666667,0 c 0,-3.555557 0.444444,-4.000001 4.000001,-4.000001 3.555556,0 4,0.444444 4,4.000001 0,3.555556 -0.444444,4 -4,4 -3.555557,0 -4.000001,-0.444444 -4.000001,-4 z M 1.3333334,58.666668 c 0,-3.555556 0.4444444,-4 4.0000001,-4 3.5555557,0 4.0000001,0.444444 4.0000001,4 0,3.555557 -0.4444444,4.000001 -4.0000001,4.000001 -3.5555557,0 -4.0000001,-0.444444 -4.0000001,-4.000001 z m 74.6666686,0 c 0,-3.555556 0.444444,-4 4.000001,-4 3.555556,0 4,0.444444 4,4 0,3.555557 -0.444444,4.000001 -4,4.000001 -3.555557,0 -4.000001,-0.444444 -4.000001,-4.000001 z M 1.3333334,37.333334 c 0,-3.555556 0.4444444,-4 4.0000001,-4 3.5555557,0 4.0000001,0.444444 4.0000001,4 0,3.555557 -0.4444444,4.000001 -4.0000001,4.000001 -3.5555557,0 -4.0000001,-0.444444 -4.0000001,-4.000001 z m 74.6666686,0 c 0,-3.555556 0.444444,-4 4.000001,-4 3.555556,0 4,0.444444 4,4 0,3.555557 -0.444444,4.000001 -4,4.000001 -3.555557,0 -4.000001,-0.444444 -4.000001,-4.000001 z M 1.3333334,26.666668 c 0,-3.555557 0.4444444,-4.000001 4.0000001,-4.000001 3.5555557,0 4.0000001,0.444444 4.0000001,4.000001 0,3.555556 -0.4444444,4 -4.0000001,4 -3.5555557,0 -4.0000001,-0.444444 -4.0000001,-4 z m 74.6666686,0 c 0,-3.555557 0.444444,-4.000001 4.000001,-4.000001 3.555556,0 4,0.444444 4,4.000001 0,3.555556 -0.444444,4 -4,4 -3.555557,0 -4.000001,-0.444444 -4.000001,-4 z M 1.3333334,16 c 0,-3.555555 0.4444444,-4 4.0000001,-4 3.5555557,0 4.0000001,0.444445 4.0000001,4 0,3.555557 -0.4444444,4.000001 -4.0000001,4.000001 -3.5555557,0 -4.0000001,-0.444444 -4.0000001,-4.000001 z m 64.0000016,0 c 0,-3.555555 0.444444,-4 4.000001,-4 3.555556,0 4,0.444445 4,4 0,3.555557 -0.444444,4.000001 -4,4.000001 -3.555557,0 -4.000001,-0.444444 -4.000001,-4.000001 z m 10.666667,0 c 0,-3.555555 0.444444,-4 4.000001,-4 3.555556,0 4,0.444445 4,4 0,3.555557 -0.444444,4.000001 -4,4.000001 -3.555557,0 -4.000001,-0.444444 -4.000001,-4.000001 z M 1.3333334,5.3333335 c 0,-3.5555557 0.4444444,-4.0000001 4.0000001,-4.0000001 3.5555557,0 4.0000001,0.4444444 4.0000001,4.0000001 0,3.5555557 -0.4444444,4.0000001 -4.0000001,4.0000001 -3.5555557,0 -4.0000001,-0.4444444 -4.0000001,-4.0000001 z m 10.6666666,0 c 0,-3.5555557 0.444445,-4.0000001 4,-4.0000001 3.555557,0 4.000001,0.4444444 4.000001,4.0000001 0,3.5555557 -0.444444,4.0000001 -4.000001,4.0000001 -3.555555,0 -4,-0.4444444 -4,-4.0000001 z m 10.666667,0 c 0,-3.5555557 0.444444,-4.0000001 4.000001,-4.0000001 3.555556,0 4,0.4444444 4,4.0000001 0,3.5555557 -0.444444,4.0000001 -4,4.0000001 -3.555557,0 -4.000001,-0.4444444 -4.000001,-4.0000001 z m 10.666667,0 c 0,-3.5555557 0.444444,-4.0000001 4,-4.0000001 3.555557,0 4.000001,0.4444444 4.000001,4.0000001 0,3.5555557 -0.444444,4.0000001 -4.000001,4.0000001 -3.555556,0 -4,-0.4444444 -4,-4.0000001 z m 10.666667,0 c 0,-3.5555557 0.444444,-4.0000001 4.000001,-4.0000001 3.555556,0 4,0.4444444 4,4.0000001 0,3.5555557 -0.444444,4.0000001 -4,4.0000001 -3.555557,0 -4.000001,-0.4444444 -4.000001,-4.0000001 z m 10.666667,0 c 0,-3.5555557 0.444444,-4.0000001 4,-4.0000001 3.555557,0 4.000001,0.4444444 4.000001,4.0000001 0,3.5555557 -0.444444,4.0000001 -4.000001,4.0000001 -3.555556,0 -4,-0.4444444 -4,-4.0000001 z m 21.333334,0 c 0,-3.5555557 0.444444,-4.0000001 4.000001,-4.0000001 3.555556,0 4,0.4444444 4,4.0000001 0,3.5555557 -0.444444,4.0000001 -4,4.0000001 -3.555557,0 -4.000001,-0.4444444 -4.000001,-4.0000001 z"
       id="path4546" />
    <path
       style="fill:#00fe00;stroke-width:1.33333337"
       d="m 1.3333334,80.000003 c 0,-3.555557 0.4444444,-4.000001 4.0000001,-4.000001 3.5555557,0 4.0000001,0.444444 4.0000001,4.000001 0,3.555556 -0.4444444,4 -4.0000001,4 -3.5555557,0 -4.0000001,-0.444444 -4.0000001,-4 z m 10.6666666,0 c 0,-3.555557 0.444445,-4.000001 4,-4.000001 3.555557,0 4.000001,0.444444 4.000001,4.000001 0,3.555556 -0.444444,4 -4.000001,4 -3.555555,0 -4,-0.444444 -4,-4 z m 21.333334,0 c 0,-3.555557 0.444444,-4.000001 4,-4.000001 3.555557,0 4.000001,0.444444 4.000001,4.000001 0,3.555556 -0.444444,4 -4.000001,4 -3.555556,0 -4,-0.444444 -4,-4 z m 10.666667,0 c 0,-3.555557 0.444444,-4.000001 4.000001,-4.000001 3.555556,0 4,0.444444 4,4.000001 0,3.555556 -0.444444,4 -4,4 -3.555557,0 -4.000001,-0.444444 -4.000001,-4 z m 10.666667,0 c 0,-3.555557 0.444444,-4.000001 4,-4.000001 3.555557,0 4.000001,0.444444 4.000001,4.000001 0,3.555556 -0.444444,4 -4.000001,4 -3.555556,0 -4,-0.444444 -4,-4 z m 10.666667,0 c 0,-3.555557 0.444444,-4.000001 4.000001,-4.000001 3.555556,0 4,0.444444 4,4.000001 0,3.555556 -0.444444,4 -4,4 -3.555557,0 -4.000001,-0.444444 -4.000001,-4 z m 10.666667,0 c 0,-3.555557 0.444444,-4.000001 4.000001,-4.000001 3.555556,0 4,0.444444 4,4.000001 0,3.555556 -0.444444,4 -4,4 -3.555557,0 -4.000001,-0.444444 -4.000001,-4 z M 22.666667,69.333336 c 0,-3.555557 0.444444,-4.000001 4.000001,-4.000001 3.555556,0 4,0.444444 4,4.000001 0,3.555556 -0.444444,4 -4,4 -3.555557,0 -4.000001,-0.444444 -4.000001,-4 z m 42.666668,0 c 0,-3.555557 0.444444,-4.000001 4.000001,-4.000001 3.555556,0 4,0.444444 4,4.000001 0,3.555556 -0.444444,4 -4,4 -3.555557,0 -4.000001,-0.444444 -4.000001,-4 z m 10.666667,0 c 0,-3.555557 0.444444,-4.000001 4.000001,-4.000001 3.555556,0 4,0.444444 4,4.000001 0,3.555556 -0.444444,4 -4,4 -3.555557,0 -4.000001,-0.444444 -4.000001,-4 z M 1.3333334,58.666668 c 0,-3.555556 0.4444444,-4 4.0000001,-4 3.5555557,0 4.0000001,0.444444 4.0000001,4 0,3.555557 -0.4444444,4.000001 -4.0000001,4.000001 -3.5555557,0 -4.0000001,-0.444444 -4.0000001,-4.000001 z m 74.6666686,0 c 0,-3.555556 0.444444,-4 4.000001,-4 3.555556,0 4,0.444444 4,4 0,3.555557 -0.444444,4.000001 -4,4.000001 -3.555557,0 -4.000001,-0.444444 -4.000001,-4.000001 z M 1.3333334,37.333334 c 0,-3.555556 0.4444444,-4 4.0000001,-4 3.5555557,0 4.0000001,0.444444 4.0000001,4 0,3.555557 -0.4444444,4.000001 -4.0000001,4.000001 -3.5555557,0 -4.0000001,-0.444444 -4.0000001,-4.000001 z m 74.6666686,0 c 0,-3.555556 0.444444,-4 4.000001,-4 3.555556,0 4,0.444444 4,4 0,3.555557 -0.444444,4.000001 -4,4.000001 -3.555557,0 -4.000001,-0.444444 -4.000001,-4.000001 z M 1.3333334,26.666668 c 0,-3.555557 0.4444444,-4.000001 4.0000001,-4.000001 3.5555557,0 4.0000001,0.444444 4.0000001,4.000001 0,3.555556 -0.4444444,4 -4.0000001,4 -3.5555557,0 -4.0000001,-0.444444 -4.0000001,-4 z m 74.6666686,0 c 0,-3.555557 0.444444,-4.000001 4.000001,-4.000001 3.555556,0 4,0.444444 4,4.000001 0,3.555556 -0.444444,4 -4,4 -3.555557,0 -4.000001,-0.444444 -4.000001,-4 z m 0,-10.666668 c 0,-3.555555 0.444444,-4 4.000001,-4 3.555556,0 4,0.444445 4,4 0,3.555557 -0.444444,4.000001 -4,4.000001 -3.555557,0 -4.000001,-0.444444 -4.000001,-4.000001 z M 1.3333334,5.3333335 c 0,-3.5555557 0.4444444,-4.0000001 4.0000001,-4.0000001 3.5555557,0 4.0000001,0.4444444 4.0000001,4.0000001 0,3.5555557 -0.4444444,4.0000001 -4.0000001,4.0000001 -3.5555557,0 -4.0000001,-0.4444444 -4.0000001,-4.0000001 z m 10.6666666,0 c 0,-3.5555557 0.444445,-4.0000001 4,-4.0000001 3.555557,0 4.000001,0.4444444 4.000001,4.0000001 0,3.5555557 -0.444444,4.0000001 -4.000001,4.0000001 -3.555555,0 -4,-0.4444444 -4,-4.0000001 z m 10.666667,0 c 0,-3.5555557 0.444444,-4.0000001 4.000001,-4.0000001 3.555556,0 4,0.4444444 4,4.0000001 0,3.5555557 -0.444444,4.0000001 -4,4.0000001 -3.555557,0 -4.000001,-0.4444444 -4.000001,-4.0000001 z m 10.666667,0 c 0,-3.5555557 0.444444,-4.0000001 4,-4.0000001 3.555557,0 4.000001,0.4444444 4.000001,4.0000001 0,3.5555557 -0.444444,4.0000001 -4.000001,4.0000001 -3.555556,0 -4,-0.4444444 -4,-4.0000001 z m 10.666667,0 c 0,-3.5555557 0.444444,-4.0000001 4.000001,-4.0000001 3.555556,0 4,0.4444444 4,4.0000001 0,3.5555557 -0.444444,4.0000001 -4,4.0000001 -3.555557,0 -4.000001,-0.4444444 -4.000001,-4.0000001 z m 32.000001,0 c 0,-3.5555557 0.444444,-4.0000001 4.000001,-4.0000001 3.555556,0 4,0.4444444 4,4.0000001 0,3.5555557 -0.444444,4.0000001 -4,4.0000001 -3.555557,0 -4.000001,-0.4444444 -4.000001,-4.0000001 z"
       id="path4544" />
    <path
       style="fill:#0000fe;stroke-width:1.33333337"
       d="m 1.3333334,80.000003 c 0,-3.555557 0.4444444,-4.000001 4.0000001,-4.000001 3.5555557,0 4.0000001,0.444444 4.0000001,4.000001 0,3.555556 -0.4444444,4 -4.0000001,4 -3.5555557,0 -4.0000001,-0.444444 -4.0000001,-4 z m 10.6666666,0 c 0,-3.555557 0.444445,-4.000001 4,-4.000001 3.555557,0 4.000001,0.444444 4.000001,4.000001 0,3.555556 -0.444444,4 -4.000001,4 -3.555555,0 -4,-0.444444 -4,-4 z m 21.333334,0 c 0,-3.555557 0.444444,-4.000001 4,-4.000001 3.555557,0 4.000001,0.444444 4.000001,4.000001 0,3.555556 -0.444444,4 -4.000001,4 -3.555556,0 -4,-0.444444 -4,-4 z m 10.666667,0 c 0,-3.555557 0.444444,-4.000001 4.000001,-4.000001 3.555556,0 4,0.444444 4,4.000001 0,3.555556 -0.444444,4 -4,4 -3.555557,0 -4.000001,-0.444444 -4.000001,-4 z m 10.666667,0 c 0,-3.555557 0.444444,-4.000001 4,-4.000001 3.555557,0 4.000001,0.444444 4.000001,4.000001 0,3.555556 -0.444444,4 -4.000001,4 -3.555556,0 -4,-0.444444 -4,-4 z m 10.666667,0 c 0,-3.555557 0.444444,-4.000001 4.000001,-4.000001 3.555556,0 4,0.444444 4,4.000001 0,3.555556 -0.444444,4 -4,4 -3.555557,0 -4.000001,-0.444444 -4.000001,-4 z m 10.666667,0 c 0,-3.555557 0.444444,-4.000001 4.000001,-4.000001 3.555556,0 4,0.444444 4,4.000001 0,3.555556 -0.444444,4 -4,4 -3.555557,0 -4.000001,-0.444444 -4.000001,-4 z m 0,-10.666667 c 0,-3.555557 0.444444,-4.000001 4.000001,-4.000001 3.555556,0 4,0.444444 4,4.000001 0,3.555556 -0.444444,4 -4,4 -3.555557,0 -4.000001,-0.444444 -4.000001,-4 z M 1.3333334,58.666668 c 0,-3.555556 0.4444444,-4 4.0000001,-4 3.5555557,0 4.0000001,0.444444 4.0000001,4 0,3.555557 -0.4444444,4.000001 -4.0000001,4.000001 -3.5555557,0 -4.0000001,-0.444444 -4.0000001,-4.000001 z m 74.6666686,0 c 0,-3.555556 0.444444,-4 4.000001,-4 3.555556,0 4,0.444444 4,4 0,3.555557 -0.444444,4.000001 -4,4.000001 -3.555557,0 -4.000001,-0.444444 -4.000001,-4.000001 z M 1.3333334,37.333334 c 0,-3.555556 0.4444444,-4 4.0000001,-4 3.5555557,0 4.0000001,0.444444 4.0000001,4 0,3.555557 -0.4444444,4.000001 -4.0000001,4.000001 -3.5555557,0 -4.0000001,-0.444444 -4.0000001,-4.000001 z m 74.6666686,0 c 0,-3.555556 0.444444,-4 4.000001,-4 3.555556,0 4,0.444444 4,4 0,3.555557 -0.444444,4.000001 -4,4.000001 -3.555557,0 -4.000001,-0.444444 -4.000001,-4.000001 z M 1.3333334,26.666668 c 0,-3.555557 0.4444444,-4.000001 4.0000001,-4.000001 3.5555557,0 4.0000001,0.444444 4.0000001,4.000001 0,3.555556 -0.4444444,4 -4.0000001,4 -3.5555557,0 -4.0000001,-0.444444 -4.0000001,-4 z m 74.6666686,0 c 0,-3.555557 0.444444,-4.000001 4.000001,-4.000001 3.555556,0 4,0.444444 4,4.000001 0,3.555556 -0.444444,4 -4,4 -3.555557,0 -4.000001,-0.444444 -4.000001,-4 z m 0,-10.666668 c 0,-3.555555 0.444444,-4 4.000001,-4 3.555556,0 4,0.444445 4,4 0,3.555557 -0.444444,4.000001 -4,4.000001 -3.555557,0 -4.000001,-0.444444 -4.000001,-4.000001 z M 1.3333334,5.3333335 c 0,-3.5555557 0.4444444,-4.0000001 4.0000001,-4.0000001 3.5555557,0 4.0000001,0.4444444 4.0000001,4.0000001 0,3.5555557 -0.4444444,4.0000001 -4.0000001,4.0000001 -3.5555557,0 -4.0000001,-0.4444444 -4.0000001,-4.0000001 z m 10.6666666,0 c 0,-3.5555557 0.444445,-4.0000001 4,-4.0000001 3.555557,0 4.000001,0.4444444 4.000001,4.0000001 0,3.5555557 -0.444444,4.0000001 -4.000001,4.0000001 -3.555555,0 -4,-0.4444444 -4,-4.0000001 z m 10.666667,0 c 0,-3.5555557 0.444444,-4.0000001 4.000001,-4.0000001 3.555556,0 4,0.4444444 4,4.0000001 0,3.5555557 -0.444444,4.0000001 -4,4.0000001 -3.555557,0 -4.000001,-0.4444444 -4.000001,-4.0000001 z m 10.666667,0 c 0,-3.5555557 0.444444,-4.0000001 4,-4.0000001 3.555557,0 4.000001,0.4444444 4.000001,4.0000001 0,3.5555557 -0.444444,4.0000001 -4.000001,4.0000001 -3.555556,0 -4,-0.4444444 -4,-4.0000001 z m 10.666667,0 c 0,-3.5555557 0.444444,-4.0000001 4.000001,-4.0000001 3.555556,0 4,0.4444444 4,4.0000001 0,3.5555557 -0.444444,4.0000001 -4,4.0000001 -3.555557,0 -4.000001,-0.4444444 -4.000001,-4.0000001 z m 32.000001,0 c 0,-3.5555557 0.444444,-4.0000001 4.000001,-4.0000001 3.555556,0 4,0.4444444 4,4.0000001 0,3.5555557 -0.444444,4.0000001 -4,4.0000001 -3.555557,0 -4.000001,-0.4444444 -4.000001,-4.0000001 z"
       id="path4542" />
    <path
       style="fill:#000000;stroke-width:1.33333337"
       d="m 1.3333334,80.000003 c 0,-3.555557 0.4444444,-4.000001 4.0000001,-4.000001 3.5555557,0 4.0000001,0.444444 4.0000001,4.000001 0,3.555556 -0.4444444,4 -4.0000001,4 -3.5555557,0 -4.0000001,-0.444444 -4.0000001,-4 z m 10.6666666,0 c 0,-3.555557 0.444445,-4.000001 4,-4.000001 3.555557,0 4.000001,0.444444 4.000001,4.000001 0,3.555556 -0.444444,4 -4.000001,4 -3.555555,0 -4,-0.444444 -4,-4 z m 21.333334,0 c 0,-3.555557 0.444444,-4.000001 4,-4.000001 3.555557,0 4.000001,0.444444 4.000001,4.000001 0,3.555556 -0.444444,4 -4.000001,4 -3.555556,0 -4,-0.444444 -4,-4 z m 10.666667,0 c 0,-3.555557 0.444444,-4.000001 4.000001,-4.000001 3.555556,0 4,0.444444 4,4.000001 0,3.555556 -0.444444,4 -4,4 -3.555557,0 -4.000001,-0.444444 -4.000001,-4 z m 10.666667,0 c 0,-3.555557 0.444444,-4.000001 4,-4.000001 3.555557,0 4.000001,0.444444 4.000001,4.000001 0,3.555556 -0.444444,4 -4.000001,4 -3.555556,0 -4,-0.444444 -4,-4 z m 10.666667,0 c 0,-3.555557 0.444444,-4.000001 4.000001,-4.000001 3.555556,0 4,0.444444 4,4.000001 0,3.555556 -0.444444,4 -4,4 -3.555557,0 -4.000001,-0.444444 -4.000001,-4 z m 10.666667,0 c 0,-3.555557 0.444444,-4.000001 4.000001,-4.000001 3.555556,0 4,0.444444 4,4.000001 0,3.555556 -0.444444,4 -4,4 -3.555557,0 -4.000001,-0.444444 -4.000001,-4 z M 1.3333334,58.666668 c 0,-3.555556 0.4444444,-4 4.0000001,-4 3.5555557,0 4.0000001,0.444444 4.0000001,4 0,3.555557 -0.4444444,4.000001 -4.0000001,4.000001 -3.5555557,0 -4.0000001,-0.444444 -4.0000001,-4.000001 z m 74.6666686,0 c 0,-3.555556 0.444444,-4 4.000001,-4 3.555556,0 4,0.444444 4,4 0,3.555557 -0.444444,4.000001 -4,4.000001 -3.555557,0 -4.000001,-0.444444 -4.000001,-4.000001 z m 0,-42.666668 c 0,-3.555555 0.444444,-4 4.000001,-4 3.555556,0 4,0.444445 4,4 0,3.555557 -0.444444,4.000001 -4,4.000001 -3.555557,0 -4.000001,-0.444444 -4.000001,-4.000001 z M 1.3333334,5.3333335 c 0,-3.5555557 0.4444444,-4.0000001 4.0000001,-4.0000001 3.5555557,0 4.0000001,0.4444444 4.0000001,4.0000001 0,3.5555557 -0.4444444,4.0000001 -4.0000001,4.0000001 -3.5555557,0 -4.0000001,-0.4444444 -4.0000001,-4.0000001 z m 21.3333336,0 c 0,-3.5555557 0.444444,-4.0000001 4.000001,-4.0000001 3.555556,0 4,0.4444444 4,4.0000001 0,3.5555557 -0.444444,4.0000001 -4,4.0000001 -3.555557,0 -4.000001,-0.4444444 -4.000001,-4.0000001 z m 10.666667,0 c 0,-3.5555557 0.444444,-4.0000001 4,-4.0000001 3.555557,0 4.000001,0.4444444 4.000001,4.0000001 0,3.5555557 -0.444444,4.0000001 -4.000001,4.0000001 -3.555556,0 -4,-0.4444444 -4,-4.0000001 z m 42.666668,0 c 0,-3.5555557 0.444444,-4.0000001 4.000001,-4.0000001 3.555556,0 4,0.4444444 4,4.0000001 0,3.5555557 -0.444444,4.0000001 -4,4.0000001 -3.555557,0 -4.000001,-0.4444444 -4.000001,-4.0000001 z"
       id="path4540" />
  </g>
</svg>
